<?xml version="1.0" encoding="utf-8"?>
<!-- Generator: Adobe Illustrator 18.0.0, SVG Export Plug-In . SVG Version: 6.00 Build 0)  -->
<!DOCTYPE svg PUBLIC "-//W3C//DTD SVG 1.1//EN" "http://www.w3.org/Graphics/SVG/1.1/DTD/svg11.dtd">
<svg version="1.1" id="Layer_1" xmlns="http://www.w3.org/2000/svg" xmlns:xlink="http://www.w3.org/1999/xlink" x="0px" y="0px"
	 viewBox="0 0 400 175" enable-background="new 0 0 400 175" xml:space="preserve">
<path fill="#FFFFFF" d="M43.2,72.1h-13l-0.1-12.3h12.7c2.8,0,4.3-1.6,4.3-4.5l0-21.1c0.1-2.7-1.1-4.1-4-4.3
	c-11.4-0.1-17.8,1.3-16.8,4.2v70.9H13.1V16.8h12.8l0.1,4.4c-0.1-3,5.6-4.5,17.1-4.3c11.4,0.2,17.2,3.8,17.2,10.9v34.1
	C60.2,68.9,54.5,72.1,43.2,72.1z"/>
<path fill="#FFFFFF" d="M67.3,21.4l32.8,0v12.8l-19.5,0.1v29.9l6.1,0v13h-6c-8.7,0-13.4-2.9-13.4-8.5V21.4z"/>
<path fill="#FFFFFF" d="M195.3,66.6V32.4c0-7.1,5.6-10.7,17-10.9c11.4-0.1,17,1,16.9,4l0.2-8.8H223V4.5h19.5v72.7h-13.3V38.7
	c0-2.9-5.5-4.3-17-4.2c-2.9,0.2-4.2,1.6-4.2,4.3l0.1,20.9c0,2.9,1.5,4.3,4.3,4.3h12.7L225,77.2h-13
	C200.7,77.2,195.3,73.6,195.3,66.6z"/>
<path fill="#FFFFFF" d="M276.4,22l0.1,12.5c-8.5,5.7-12.7,9.9-12.8,12.8l0,12.5c-0.1,2.7,2.5,4.2,7.6,4.2h13.2V22h13.3v55.3h-26.3
	c-13.8,0-20.8-4-20.8-11.1V47.3c0-7,2.5-11.3,8.4-13l-8.4,0.1V22H276.4z"/>
<path fill="#FFFFFF" d="M319.3,63.9h21.5v-6.1l13.3,0v10.6c0,5.7-4.8,8.8-13.5,8.8h-21.3c-8.6,0-13.3-3.1-13.3-8.9V30.1
	c0-5.8,4.7-8.2,13.3-8.2h21.4c8.6,0,12.4,2.3,12.4,7.9v11.5h-12.3v-7.2h-21.5V63.9z"/>
<path fill="#FFFFFF" d="M362.3,8.6h12.3v12.9l6.7,0.1l0.1,12.5l-6.8,0.1v29.7h10.8l0,13.1l-10.5,0c-8.6,0-12.7-2.7-12.7-8.3V8.6z"/>
<path fill="#FFFFFF" d="M28.4,88.5c0-5.6,4.4-8.4,13.1-8.4l18.1-0.3l0,12.8H41.7v16l6.7,0l0,12.5l-6.6,0.1v39.9H28.4V88.5z"/>
<path fill="#FFFFFF" d="M53,142.8v-38.5c0-5.7,4.5-8.6,13.1-8.6h21.2c8.6,0,12.9,3,12.9,8.7V143c0,5.5-4.2,8-12.9,8H66.1
	C57.5,151,53,148.5,53,142.8z M66.3,138.7h21l0-29.7h-21V138.7z"/>
<path fill="#FFFFFF" d="M195.1,95.7l15,0.1l19.2,30.2l0.1-46.1l13,0.1V151h-15.3l-19.5-29.6V151h-12.5L195.1,95.7z"/>
<path fill="#FFFFFF" d="M250.6,140.9v-34.1c0-7.1,5.9-10.7,17.3-10.9c11.5-0.1,17.2,1.3,17.1,4.3l0.3-8.5h-7.1V80.3h19.5V151h-12.3
	v-38c0-2.9-5.8-4.3-17.2-4.2c-2.9,0.2-4.4,1.6-4.3,4.3l0,21.1c0,2.9,1.4,4.5,4.3,4.5h12.7l-0.1,12.3h-13
	C256.6,151,250.6,147.8,250.6,140.9z"/>
<path fill="#FFFFFF" d="M305.9,95.7l32.8,0v12.8l-19.5,0.1v29.9l6.1,0V151h-6c-8.7,0-13.4-2.3-13.4-7.9V95.7z"/>
<path fill="#FFFFFF" d="M364,95.7l0.1,12.7c-8.5,5.7-12.7,10-12.8,12.9l0,12.8c-0.1,2.7,2.5,3.5,7.6,4.5h13.6v-43h13.3v55.5
	c0,11.5-4.7,17.2-13.2,17.2h-17.5v-12.7l13.2-0.1c2.6,0,4-1.5,4-4.6h-13.2c-13.8,0-20.4-3.6-20.4-10.7v-18.8c0-7,2.5-11.3,8.4-13
	l-41.2,0.1V95.7H364z"/>
<path fill="#FFFFFF" d="M172.8,94.7v27.5l-26.6,15.4l-26.6-15.4V90.9l30.7-17.2c2.1-1.2,3.8-3.4,3.8-5.8l0.3-21.8l-13.3,0v17.5
	l-15.4,8.5l-7.1-3.5v-31l27.7-15.6l27.6,15.6v31.2l-29.7,17.5c-11.9,6.9-19.5,11.9-19.5,28.5v4.6H138v-4.6c0-9.3,2.7-10.7,13.2-16.8
	c0,0,32.9-19.5,32.9-19.5c2-1.2,3-3.4,3-5.8V33.6c0-2.4-0.9-4.7-3-5.9l-34-19.5c-2.1-1.2-4.5-1.2-6.6,0L109,27.8
	c-2.1,1.2-3.8,3.4-3.8,5.9v38.9c0,2.5,1.8,4.8,4,5.9l3,1.5l-2.7,1.2c-2.2,1.3-4.2,3.6-4.2,6.1v38.9c0,2.5,2.1,4.8,4.3,6.1l34.1,19.5
	c1.1,0.6,2.5,0.9,3.7,0.9c1.2,0,2.5-0.3,3.6-0.9l33.2-19.5c2.2-1.3,3-3.6,3-6.1V94.7H172.8z"/>
</svg>
