<?xml version="1.0" encoding="utf-8"?>
<!-- Generator: Adobe Illustrator 18.0.0, SVG Export Plug-In . SVG Version: 6.00 Build 0)  -->
<!DOCTYPE svg PUBLIC "-//W3C//DTD SVG 1.1//EN" "http://www.w3.org/Graphics/SVG/1.1/DTD/svg11.dtd">
<svg version="1.1" id="Layer_1" xmlns="http://www.w3.org/2000/svg" xmlns:xlink="http://www.w3.org/1999/xlink" x="0px" y="0px"
	 viewBox="0 0 200 200" enable-background="new 0 0 200 200" xml:space="preserve">
<path fill="#FFFFFF" d="M126.63,114.611v27.486l-26.623,15.417l-26.633-15.417v-31.234l30.689-17.211
	c2.107-1.194,3.754-3.424,3.761-5.845l0.343-21.768l-13.286,0.01v17.53L79.44,92.03l-7.085-3.519V57.509l27.652-15.627
	l27.646,15.627v31.168l-29.673,17.457c-11.91,6.881-19.486,11.948-19.486,28.473v4.584h13.32v-4.584
	c0-9.299,2.656-10.736,13.18-16.809c0.021-0.016,32.943-19.478,32.943-19.478c2.045-1.215,3.026-3.421,3.026-5.804V53.586
	c0-2.428-0.892-4.662-2.999-5.862L103.98,28.261c-2.073-1.179-4.502-1.179-6.567,0L62.833,47.724
	c-2.107,1.201-3.795,3.435-3.795,5.862v38.929c0,2.472,1.788,4.75,3.953,5.926l2.968,1.494l-2.749,1.206
	c-2.175,1.254-4.172,3.57-4.172,6.075v38.931c0,2.508,2.11,4.821,4.275,6.075l34.103,19.467c1.081,0.625,2.491,0.934,3.695,0.934
	c1.207,0,2.519-0.309,3.603-0.934l33.235-19.467c2.162-1.254,3.013-3.567,3.013-6.075v-31.537H126.63z"/>
</svg>
