<?xml version="1.0" encoding="utf-8"?>
<!-- Generator: Adobe Illustrator 16.0.0, SVG Export Plug-In . SVG Version: 6.00 Build 0)  -->
<!DOCTYPE svg PUBLIC "-//W3C//DTD SVG 1.1//EN" "http://www.w3.org/Graphics/SVG/1.1/DTD/svg11.dtd">
<svg version="1.1" id="Layer_1" xmlns="http://www.w3.org/2000/svg" xmlns:xlink="http://www.w3.org/1999/xlink" x="0px" y="0px"
	 width="208.428px" height="208.866px" viewBox="0 0 208.428 208.866" enable-background="new 0 0 208.428 208.866"
	 xml:space="preserve">
<g>
	<defs>
		<rect id="SVGID_1_" width="208.428" height="208.866"/>
	</defs>
	<clipPath id="SVGID_2_">
		<use xlink:href="#SVGID_1_"  overflow="visible"/>
	</clipPath>
	<path clip-path="url(#SVGID_2_)" fill="#FFFFFF" d="M112.521,0H95.948l-0.834,0.817C94.989,0.946,83.03,13.274,74.66,21.672
		l-4.301-4.301c-1.886-1.887-4.006-2.844-6.299-2.844c-2.737,0-5.488,1.363-8.176,4.051L18.65,55.885l-1.207,1.206
		c-2.15,2.151-4.825,4.826-4.825,8.244c0,2.284,1.289,3.866,2.412,4.988l5.135,5.477C11.796,84.166,0.934,95.432,0.821,95.549
		L0,96.385v16.563l0.415,0.402c0.128,0.125,12.493,12.12,20.892,20.492l-3.956,4.283c-1.873,1.881-2.836,4.066-2.787,6.325
		c0.06,2.758,1.552,5.5,4.436,8.15l37.181,37.18l1.149,1.532l0.058,0.078l0.069,0.069c0.261,0.261,0.524,0.528,0.787,0.797
		c2.351,2.394,4.782,4.869,7.895,4.869c2.284,0,3.866-1.289,4.988-2.411l5.51-5.51c8.359,8.332,19.562,19.165,19.679,19.277
		l0.397,0.385h15.907l1.095-1.221c0.125-0.128,12.084-12.457,20.454-20.854l4.301,4.301c1.763,1.762,4.093,2.813,6.232,2.813h0.402
		c2.256,0,4.817-1.443,7.834-4.414l37.276-37.277l1.208-1.207c2.588-2.588,5.265-5.265,5.265-8.683c0-2.284-1.289-3.866-2.412-4.988
		l-5.51-5.51c8.331-8.359,19.165-19.563,19.278-19.679l0.376-0.389l0.007-0.542v-15.76l-0.742-0.746
		c-0.13-0.124-12.458-12.084-20.855-20.454l4.301-4.301c1.773-1.773,3.336-3.82,2.813-6.769c-0.058-2.223-1.502-4.743-4.414-7.699
		l-37.315-37.241l-1.111-1.112c-1.447-2.147-3.787-4.92-7.533-4.92c-2.264,0-3.837,1.266-4.958,2.381l-5.884,5.196
		c-8.4-8.374-19.693-19.296-19.811-19.409L112.521,0z M64.53,37.513c3.386,0,5.754-1.934,7.439-3.618
		c3.98-3.981,30.499-30.898,30.766-31.17l1.496-1.517l1.146,1.13c0.271,0.267,27.181,26.778,31.155,30.752
		c2.434,2.435,4.736,3.618,7.036,3.618c3.607,0,7.253-2.012,11.401-6.312l3.644,3.407l-8.329,8.329
		c-1.189,1.189-2.537,2.536-4.599,2.536c-2.478,0-5.592-1.93-9.254-5.736l-30.776-30.85l-0.965-0.968l-0.966,0.967L74.171,37.633
		c-3.578,3.579-7.072,5.715-9.346,5.715c-0.15,0-0.295-0.01-0.431-0.029l-0.096-0.014h-0.097c-1.174,0-2.316-0.892-3.524-1.836
		c-0.284-0.222-0.567-0.443-0.851-0.653l-8.325-8.325l1.702-1.703c3.408,3.246,6.53,5.348,9.292,6.255l0.207,0.068h0.218
		c0.191,0,0.323,0.051,0.559,0.148C63.737,37.366,64.092,37.513,64.53,37.513 M78.571,42.8l25.752-25.752l26.978,26.978
		c5.096,5.095,9.912,7.678,14.315,7.678c4.11,0,6.914-2.302,9.388-4.333l0.052-0.043l0.048-0.047l8.361-8.361l7.773,7.773
		l-8.384,7.96c-1.98,1.98-4.58,5.07-4.576,9.312c0.004,4.264,2.545,8.869,7.771,14.077l25.771,25.77l-26.979,26.979
		c-5.146,5.146-7.644,9.773-7.634,14.146c0.007,3.266,1.453,6.282,4.419,9.221l8.357,8.358l-7.821,7.821l-8.362-7.969
		c-1.93-1.931-5.018-4.528-9.255-4.528c-4.267,0-8.875,2.543-14.086,7.771l-25.77,25.77l-26.979-26.979
		c-5.273-5.271-9.664-7.728-13.821-7.728c-0.361,0-0.724,0.019-1.08,0.058c-3.423,0.38-5.905,2.34-7.546,3.638
		c-0.299,0.235-0.575,0.454-0.832,0.643l-0.073,0.053l-0.066,0.064l-8.727,8.397l-7.817-7.816l8.361-8.362
		c1.956-1.955,4.555-5.045,4.551-9.287c-0.003-4.264-2.545-8.869-7.771-14.077l-25.77-25.77l26.979-26.978
		c5.146-5.147,7.643-9.774,7.633-14.146c-0.007-3.266-1.453-6.282-4.419-9.222l-8.357-8.357l7.798-7.798l8.362,8.361
		c1.645,1.646,4.393,4.394,8.614,4.423c0.31,0.029,0.627,0.043,0.943,0.043C69.019,50.54,73.955,47.791,78.571,42.8 M142.721,19.102
		c0.226-0.1,0.375-0.144,0.449-0.162c0.735,0.157,2.728,2.107,3.694,3.053l0.176,0.172l0.592,0.592l0.604,0.604l2.226,2.226
		c-3.166,2.933-5.369,4.362-6.714,4.362c-0.802,0-1.391-0.543-2.448-1.585l-3.921-3.92L142.721,19.102z M58.458,25.633l2.653-2.679
		c1.881-1.881,2.939-2.163,3.402-2.163c0.539,0,0.941,0.363,1.539,0.961l4.28,4.28c-0.234,0.217-0.462,0.424-0.678,0.62
		c-0.961,0.873-1.683,1.529-2.087,2.188c-0.948,0.943-1.504,1.434-2.239,1.434C63.976,30.274,61.723,28.754,58.458,25.633
		 M30.497,53.2l3.677-3.416l8.396,8.396c1.199,1.198,2.557,2.556,2.537,4.645c-0.024,2.47-1.954,5.567-5.736,9.207L8.556,102.809
		l-0.966,0.965l0.966,0.966l29.552,29.553c8.545,8.544,5.34,11.749,3.219,13.87l-8.418,8.45l-1.586-1.408
		c4.46-4.646,6.3-7.961,6.295-11.25c-0.004-2.559-1.211-4.999-3.69-7.462c-3.982-3.982-31.337-30.505-31.613-30.772l-1.091-1.058
		l1.552-1.576c0.267-0.271,26.779-27.181,30.752-31.155C40.353,65.108,36.048,58.942,30.497,53.2 M170.049,135.55l30.737-30.737
		l0.971-0.971l-0.978-0.965l-29.955-29.553c-8.538-8.538-5.333-11.743-3.212-13.864l8.361-8.361l1.697,1.697
		c-3.553,3.662-6.625,7.564-6.619,11.543c0.004,2.491,1.168,4.857,3.558,7.231c3.978,3.978,30.895,30.496,31.166,30.764l1.48,1.458
		l-1.093,1.11c-0.267,0.271-26.779,27.181-30.752,31.155c-6.84,6.839-2.5,13.02,3.07,18.772l-3.353,3.375l-8.357-8.359
		c-1.559-1.558-2.417-2.416-2.417-4.301C164.354,143.842,165.343,140.728,170.049,135.55 M182.813,69.915l-1.449-1.449l-1.207-1.207
		c-1.268-1.267-1.696-1.794-1.531-2.731c0.243-1.386,1.752-3.52,4.603-6.503l2.588,2.587c1.161,1.465,1.798,2.455,2.132,3.321
		c-0.035,0.292-0.189,0.795-0.867,1.714L182.813,69.915z M19.378,65.331c0.157-0.735,2.108-2.728,3.055-3.696l0.17-0.174
		l0.392-0.391l0.804-0.805l2.226-2.226c2.703,2.917,4.124,5.011,4.336,6.383c0.147,0.95-0.286,1.487-1.559,2.78l-1.089,1.089
		l-2.831,2.831L19.54,65.78C19.44,65.555,19.396,65.405,19.378,65.331 M180.269,140.803c0.195-0.194,0.462-0.433,0.777-0.72
		c0.804-0.728,1.932-1.748,3.142-3.068l5.369,5.462c0.185,0.185,0.299,0.324,0.366,0.418c-0.32,0.817-2.118,2.653-3.015,3.569
		l-0.17,0.173l-3.416,3.417c-5.671-6.175-4.695-7.322-3.131-9.161L180.269,140.803z M22.257,142.419l4.235-4.235l1.69,1.69
		l0.966,0.966c1.267,1.267,1.696,1.794,1.531,2.729c-0.243,1.388-1.752,3.521-4.602,6.504l-2.643-2.643
		c-2.865-2.864-2.39-3.468-1.443-4.671C22.08,142.646,22.169,142.534,22.257,142.419 M50.623,175.096l8.362-8.361
		c1.558-1.558,2.416-2.417,4.301-2.417c1.701,0,4.816,0.989,9.994,5.695l30.737,30.736l0.965,0.966l0.965-0.966l29.553-29.553
		c3.888-3.727,7.102-5.628,9.529-5.628c1.932,0,3.148,1.219,4.326,2.396l8.263,8.263l-1.885,1.507
		c-3.687-3.59-7.62-6.717-11.631-6.718c-2.496,0-4.866,1.163-7.244,3.557c-3.979,3.979-30.496,30.896-30.765,31.166l-1.479,1.502
		l-0.723-0.712c-0.271-0.267-27.18-26.777-31.154-30.752c-2.389-2.388-4.777-3.55-7.302-3.55c-3.705-0.001-7.294,2.46-11.439,6.242
		L50.623,175.096z M139.025,182.009l2.654-2.656c1.029-1.027,1.603-1.564,2.37-1.564c1.353,0,3.605,1.52,6.87,4.641l-2.652,2.679
		c-1.882,1.882-2.939,2.164-3.402,2.164c-0.539,0-0.941-0.362-1.539-0.961L139.025,182.009z M58.453,182.853
		c3.21-3.123,5.557-4.705,6.985-4.705c0.752,0,1.291,0.48,2.147,1.489l0.036,0.042l0.04,0.04l3.899,3.899l-5.508,5.509
		c-0.176,0.176-0.312,0.287-0.405,0.354c-0.836-0.333-2.661-2.119-3.573-3.011L61.9,186.3l-0.593-0.593l-0.603-0.604L58.453,182.853
		z"/>
	<path clip-path="url(#SVGID_2_)" fill="#FFFFFF" d="M104.689,24.232l-0.966,0.965L73.62,55.301H57.105H55.74v1.365v16.515
		l-30.104,30.104l-0.965,0.965l0.965,0.965l30.104,30.104v16.515v1.365h1.365H73.62l30.104,30.104l0.965,0.966l0.965-0.965
		l30.104-30.104h16.516h1.365v-1.365v-16.515l30.103-30.104l0.966-0.965l-0.966-0.965l-30.103-30.104V56.667v-1.365h-1.365h-16.516
		l-30.104-30.104L104.689,24.232z M62.493,62.054h13.302h0.565l0.4-0.4l27.929-27.929l27.929,27.929l0.4,0.4h0.564h13.303v13.302
		v0.565l0.398,0.4l27.929,27.929l-27.929,27.929l-0.398,0.399v0.565v13.265h-13.303h-0.564l-0.4,0.4l-27.929,27.929L76.76,146.81
		l-0.4-0.4h-0.565H62.493v-13.265v-0.565l-0.4-0.399L34.164,104.25l27.929-27.929l0.4-0.4v-0.565V62.054z"/>
	<path clip-path="url(#SVGID_2_)" fill="#FFFFFF" d="M125.417,114.932v20.997l-20.497,11.414l-20.496-11.498v-23.246l23.246-12.831
		c1.583-0.917,2.999-2.583,2.999-4.333l0.334-16.247h-9.832v13.081l-11.415,6.332l-5.249-2.583V72.938l20.497-11.665L125.5,72.938
		v23.246l-22.413,12.998c-8.915,5.082-14.831,8.915-14.831,21.247v3.832h10.249v-3.832c0-6.916,2.166-7.999,9.998-12.498
		l24.746-14.498c1.5-0.917,2.5-2.583,2.5-4.333V70.105c0-1.833-0.834-3.5-2.417-4.333L107.92,51.275
		c-1.583-0.917-3.416-0.917-4.916,0L77.091,65.772c-1.583,0.917-2.999,2.583-2.999,4.333v28.995c0,1.833,1.5,3.5,3.083,4.416
		l2.249,1.083l-2.166,0.917c-1.583,0.916-3.249,2.666-3.249,4.499v28.995c0,1.834,1.749,3.583,3.332,4.5l25.496,14.497
		c0.833,0.5,1.917,0.667,2.833,0.667c0.917,0,1.917-0.25,2.666-0.667l24.913-14.497c1.583-0.917,2.416-2.667,2.416-4.5v-23.996
		h-10.248V114.932z"/>
</g>
</svg>
