<?xml version="1.0" encoding="utf-8"?>
<!-- Generator: Adobe Illustrator 16.0.0, SVG Export Plug-In . SVG Version: 6.00 Build 0)  -->
<!DOCTYPE svg PUBLIC "-//W3C//DTD SVG 1.1//EN" "http://www.w3.org/Graphics/SVG/1.1/DTD/svg11.dtd">
<svg version="1.1" id="Layer_1" xmlns="http://www.w3.org/2000/svg" xmlns:xlink="http://www.w3.org/1999/xlink" x="0px" y="0px"
	 width="982.974px" height="208.866px" viewBox="0 0 982.974 208.866" enable-background="new 0 0 982.974 208.866"
	 xml:space="preserve">
<g>
	<defs>
		<rect id="SVGID_1_" width="982.974" height="208.866"/>
	</defs>
	<clipPath id="SVGID_2_">
		<use xlink:href="#SVGID_1_"  overflow="visible"/>
	</clipPath>
	<path clip-path="url(#SVGID_2_)" fill="#FFFFFF" d="M112.52,0H95.948l-0.834,0.817C94.989,0.946,83.03,13.274,74.66,21.672
		l-4.301-4.301c-1.886-1.887-4.006-2.844-6.299-2.844c-2.737,0-5.488,1.363-8.176,4.051L18.65,55.885l-1.207,1.206
		c-2.15,2.151-4.825,4.826-4.825,8.244c0,2.284,1.289,3.866,2.412,4.988l5.135,5.477C11.796,84.166,0.934,95.432,0.821,95.549
		L0,96.385v16.563l0.415,0.402c0.128,0.125,12.493,12.12,20.892,20.492l-3.956,4.283c-1.873,1.881-2.836,4.066-2.787,6.325
		c0.06,2.758,1.552,5.5,4.436,8.15l37.181,37.18l1.149,1.532l0.058,0.078l0.069,0.069c0.261,0.261,0.524,0.528,0.787,0.797
		c2.351,2.394,4.782,4.869,7.895,4.869c2.284,0,3.866-1.289,4.988-2.411l5.51-5.51c8.359,8.332,19.562,19.165,19.679,19.277
		l0.397,0.385h15.907l1.095-1.221c0.125-0.128,12.084-12.457,20.454-20.854l4.301,4.301c1.762,1.762,4.092,2.813,6.232,2.813h0.402
		c2.256,0,4.818-1.443,7.834-4.414l37.277-37.277l1.208-1.207c2.588-2.588,5.264-5.265,5.264-8.683c0-2.284-1.289-3.866-2.412-4.988
		l-5.509-5.51c8.331-8.359,19.165-19.563,19.278-19.679l0.376-0.389l0.007-0.542v-15.76l-0.743-0.746
		c-0.129-0.124-12.458-12.084-20.855-20.454l4.301-4.301c1.773-1.773,3.336-3.82,2.812-6.769c-0.057-2.223-1.502-4.743-4.414-7.699
		l-37.315-37.241l-1.112-1.112c-1.447-2.147-3.787-4.92-7.533-4.92c-2.263,0-3.837,1.266-4.958,2.381l-5.884,5.196
		c-8.4-8.374-19.693-19.296-19.81-19.409L112.52,0z M64.53,37.513c3.386,0,5.754-1.934,7.439-3.618
		c3.98-3.981,30.499-30.898,30.766-31.17l1.495-1.517l1.147,1.13c0.271,0.267,27.181,26.778,31.155,30.752
		c2.434,2.435,4.736,3.618,7.036,3.618c3.608,0,7.253-2.012,11.402-6.312l3.643,3.407l-8.329,8.329
		c-1.189,1.189-2.537,2.536-4.599,2.536c-2.477,0-5.591-1.93-9.253-5.736l-30.777-30.85l-0.965-0.968l-0.966,0.967L74.171,37.633
		c-3.578,3.579-7.072,5.715-9.346,5.715c-0.15,0-0.295-0.01-0.431-0.029l-0.096-0.014h-0.097c-1.174,0-2.316-0.892-3.524-1.836
		c-0.284-0.222-0.567-0.443-0.851-0.653l-8.325-8.325l1.702-1.703c3.408,3.246,6.53,5.348,9.292,6.255l0.207,0.068h0.218
		c0.191,0,0.323,0.051,0.559,0.148C63.737,37.366,64.092,37.513,64.53,37.513 M78.571,42.8l25.752-25.752l26.978,26.978
		c5.095,5.095,9.912,7.678,14.315,7.678c4.11,0,6.914-2.302,9.388-4.333l0.052-0.043l0.047-0.047l8.362-8.361l7.773,7.773
		l-8.384,7.96c-1.98,1.98-4.58,5.07-4.576,9.312c0.004,4.264,2.545,8.869,7.771,14.077l25.77,25.77l-26.978,26.979
		c-5.147,5.146-7.644,9.773-7.634,14.146c0.007,3.266,1.453,6.282,4.419,9.221l8.357,8.358l-7.821,7.821l-8.362-7.969
		c-1.93-1.931-5.018-4.528-9.255-4.528c-4.267,0-8.875,2.543-14.086,7.771l-25.77,25.77l-26.978-26.979
		c-5.273-5.271-9.664-7.728-13.821-7.728c-0.361,0-0.724,0.019-1.08,0.058c-3.423,0.38-5.905,2.34-7.546,3.638
		c-0.299,0.235-0.575,0.454-0.832,0.643l-0.073,0.053l-0.066,0.064l-8.727,8.397l-7.817-7.816l8.361-8.362
		c1.956-1.955,4.555-5.045,4.551-9.287c-0.003-4.264-2.545-8.869-7.771-14.077l-25.77-25.77l26.979-26.978
		c5.146-5.147,7.643-9.774,7.633-14.146c-0.007-3.266-1.453-6.282-4.419-9.222l-8.357-8.357l7.798-7.798l8.362,8.361
		c1.645,1.646,4.393,4.394,8.614,4.423c0.31,0.029,0.627,0.043,0.943,0.043C69.019,50.54,73.955,47.791,78.571,42.8 M142.721,19.102
		c0.225-0.1,0.375-0.144,0.449-0.162c0.735,0.157,2.727,2.107,3.694,3.053l0.176,0.172l0.592,0.592l0.604,0.604l2.226,2.226
		c-3.166,2.933-5.369,4.362-6.714,4.362c-0.802,0-1.391-0.543-2.448-1.585l-3.921-3.92L142.721,19.102z M58.458,25.633l2.653-2.679
		c1.881-1.881,2.939-2.163,3.402-2.163c0.539,0,0.941,0.363,1.539,0.961l4.28,4.28c-0.234,0.217-0.462,0.424-0.678,0.62
		c-0.961,0.873-1.683,1.529-2.087,2.188c-0.948,0.943-1.504,1.434-2.239,1.434C63.976,30.274,61.723,28.754,58.458,25.633
		 M30.497,53.2l3.677-3.416l8.396,8.396c1.199,1.198,2.557,2.556,2.537,4.645c-0.024,2.47-1.954,5.567-5.736,9.207L8.556,102.809
		l-0.966,0.965l0.966,0.966l29.552,29.553c8.545,8.544,5.34,11.749,3.219,13.87l-8.418,8.45l-1.586-1.408
		c4.46-4.646,6.3-7.961,6.295-11.25c-0.004-2.559-1.211-4.999-3.69-7.462c-3.982-3.982-31.337-30.505-31.613-30.772l-1.091-1.058
		l1.552-1.576c0.267-0.271,26.779-27.181,30.752-31.155C40.353,65.108,36.048,58.942,30.497,53.2 M170.049,135.55l30.737-30.737
		l0.971-0.971l-0.978-0.965l-29.955-29.553c-8.538-8.538-5.333-11.743-3.212-13.864l8.362-8.361l1.697,1.697
		c-3.553,3.662-6.625,7.564-6.619,11.543c0.004,2.491,1.168,4.857,3.557,7.231c3.978,3.978,30.895,30.496,31.166,30.764l1.481,1.458
		l-1.093,1.11c-0.267,0.271-26.779,27.181-30.752,31.155c-6.84,6.839-2.5,13.02,3.07,18.772l-3.352,3.375l-8.358-8.359
		c-1.558-1.558-2.417-2.416-2.417-4.301C164.354,143.842,165.343,140.728,170.049,135.55 M182.813,69.915l-1.449-1.449l-1.207-1.207
		c-1.267-1.267-1.696-1.794-1.531-2.731c0.243-1.386,1.752-3.52,4.602-6.503l2.588,2.587c1.161,1.465,1.798,2.455,2.132,3.321
		c-0.035,0.292-0.189,0.795-0.867,1.714L182.813,69.915z M19.378,65.331c0.157-0.735,2.108-2.728,3.055-3.696l0.17-0.174
		l0.392-0.391l0.804-0.805l2.226-2.226c2.703,2.917,4.124,5.011,4.336,6.383c0.147,0.95-0.286,1.487-1.559,2.78l-1.089,1.089
		l-2.831,2.831L19.54,65.78C19.44,65.555,19.396,65.405,19.378,65.331 M180.268,140.803c0.196-0.194,0.462-0.433,0.778-0.72
		c0.804-0.728,1.931-1.748,3.141-3.068l5.37,5.462c0.184,0.185,0.298,0.324,0.366,0.418c-0.321,0.817-2.118,2.653-3.015,3.569
		l-0.17,0.173l-3.416,3.417c-5.671-6.175-4.695-7.322-3.131-9.161L180.268,140.803z M22.257,142.419l4.235-4.235l1.69,1.69
		l0.966,0.966c1.267,1.267,1.696,1.794,1.531,2.729c-0.243,1.388-1.752,3.521-4.602,6.504l-2.643-2.643
		c-2.865-2.864-2.39-3.468-1.443-4.671C22.08,142.646,22.169,142.534,22.257,142.419 M50.623,175.096l8.362-8.361
		c1.558-1.558,2.416-2.417,4.301-2.417c1.701,0,4.816,0.989,9.994,5.695l30.737,30.736l0.965,0.966l0.965-0.966l29.553-29.553
		c3.888-3.727,7.101-5.628,9.529-5.628c1.932,0,3.149,1.219,4.326,2.396l8.263,8.263l-1.885,1.507
		c-3.686-3.59-7.62-6.717-11.631-6.718c-2.496,0-4.866,1.163-7.244,3.557c-3.978,3.979-30.496,30.896-30.764,31.166l-1.48,1.502
		l-0.723-0.712c-0.271-0.267-27.18-26.777-31.154-30.752c-2.389-2.388-4.777-3.55-7.302-3.55c-3.705-0.001-7.294,2.46-11.439,6.242
		L50.623,175.096z M139.025,182.009l2.655-2.656c1.029-1.027,1.602-1.564,2.37-1.564c1.352,0,3.605,1.52,6.87,4.641l-2.653,2.679
		c-1.881,1.882-2.939,2.164-3.402,2.164c-0.539,0-0.941-0.362-1.539-0.961L139.025,182.009z M58.453,182.853
		c3.21-3.123,5.557-4.705,6.985-4.705c0.752,0,1.291,0.48,2.147,1.489l0.036,0.042l0.04,0.04l3.899,3.899l-5.508,5.509
		c-0.176,0.176-0.312,0.287-0.405,0.354c-0.836-0.333-2.661-2.119-3.573-3.011L61.9,186.3l-0.593-0.593l-0.603-0.604L58.453,182.853
		z"/>
	<path clip-path="url(#SVGID_2_)" fill="#FFFFFF" d="M104.689,24.232l-0.966,0.965L73.62,55.301H57.105H55.74v1.365v16.515
		l-30.104,30.104l-0.965,0.965l0.965,0.965l30.104,30.104v16.515v1.365h1.365H73.62l30.104,30.104l0.965,0.966l0.965-0.965
		l30.104-30.104h16.515h1.365v-1.365v-16.515l30.103-30.104l0.966-0.965l-0.966-0.965l-30.103-30.104V56.667v-1.365h-1.365h-16.515
		l-30.104-30.104L104.689,24.232z M62.493,62.054h13.302h0.565l0.4-0.4l27.929-27.929l27.929,27.929l0.4,0.4h0.565h13.302v13.302
		v0.565l0.399,0.4l27.929,27.929l-27.929,27.929l-0.399,0.399v0.565v13.265h-13.302h-0.565l-0.4,0.4l-27.929,27.929L76.76,146.81
		l-0.4-0.4h-0.565H62.493v-13.265v-0.565l-0.4-0.399L34.164,104.25l27.929-27.929l0.4-0.4v-0.565V62.054z"/>
	<path clip-path="url(#SVGID_2_)" fill="#FFFFFF" d="M125.417,114.932v20.997l-20.497,11.414l-20.496-11.498v-23.246l23.246-12.831
		c1.583-0.917,2.999-2.583,2.999-4.333l0.334-16.247h-9.832v13.081l-11.415,6.332l-5.249-2.583V72.938l20.497-11.665L125.5,72.938
		v23.246l-22.413,12.998c-8.915,5.082-14.831,8.915-14.831,21.247v3.832h10.249v-3.832c0-6.916,2.166-7.999,9.998-12.498
		l24.746-14.498c1.5-0.917,2.5-2.583,2.5-4.333V70.105c0-1.833-0.834-3.5-2.417-4.333L107.92,51.275
		c-1.583-0.917-3.416-0.917-4.916,0L77.091,65.772c-1.583,0.917-2.999,2.583-2.999,4.333v28.995c0,1.833,1.5,3.5,3.083,4.416
		l2.249,1.083l-2.166,0.917c-1.583,0.916-3.249,2.666-3.249,4.499v28.995c0,1.834,1.749,3.583,3.332,4.5l25.496,14.497
		c0.833,0.5,1.917,0.667,2.833,0.667c0.917,0,1.917-0.25,2.666-0.667l24.913-14.497c1.583-0.917,2.416-2.667,2.416-4.5v-23.996
		h-10.248V114.932z"/>
	<path clip-path="url(#SVGID_2_)" fill="#FFFFFF" d="M220.837,59.136v-8.713h38.474c13.91,0,22.985,3.502,27.227,10.505
		c2.072,3.455,3.452,6.907,4.144,10.359c0.689,3.454,1.036,7.45,1.036,11.986c0,4.538-0.174,8.238-0.519,11.098
		c-0.346,2.863-1.16,5.871-2.441,9.027c-1.283,3.158-3.059,5.722-5.327,7.694c-5.327,4.44-13.368,6.66-24.12,6.66h-18.941v33.295
		h42.556v7.397h-62.089v-7.397h8.879v-41.994l10.654-0.032h18.941c9.371,0,15.487-2.465,18.349-7.399
		c1.38-2.465,2.293-4.981,2.738-7.547c0.444-2.564,0.666-5.868,0.666-9.914c0-4.044-0.222-7.373-0.666-9.988
		c-0.445-2.614-1.358-5.203-2.738-7.769c-2.862-4.833-8.978-7.251-18.349-7.251h-18.941L220.837,59.136z"/>
	<polygon clip-path="url(#SVGID_2_)" fill="#FFFFFF" points="340.108,114.792 321.907,59.745 303.854,114.792 300.895,123.521 
		291.868,151.047 300.748,151.047 300.748,158.444 274.407,158.444 274.407,151.047 281.213,151.047 314.804,50.422 329.158,50.422 
		362.601,151.047 369.555,151.047 369.555,158.444 343.215,158.444 343.215,151.047 351.946,151.047 342.92,123.521 	"/>
	<polygon clip-path="url(#SVGID_2_)" fill="#FFFFFF" points="414.471,73.802 406.184,73.802 406.184,59.153 386.472,59.153 
		386.472,151.046 398.31,151.046 398.31,158.445 363.979,158.445 363.979,151.046 375.818,151.046 375.818,59.153 351.105,59.153 
		351.105,73.802 342.819,73.802 342.819,50.422 414.471,50.422 	"/>
	<polygon clip-path="url(#SVGID_2_)" fill="#FFFFFF" points="484.626,73.802 476.339,73.802 476.339,59.153 444.934,59.153 
		444.934,151.046 456.771,151.046 456.771,158.445 422.441,158.445 422.441,151.046 434.279,151.046 434.279,59.153 414.567,59.153 
		414.567,73.802 406.28,73.802 406.28,50.422 484.626,50.422 	"/>
	<polygon clip-path="url(#SVGID_2_)" fill="#FFFFFF" points="466.371,158.444 466.371,151.047 475.25,151.047 475.25,57.821 
		466.371,57.821 466.371,50.423 528.835,50.423 528.835,73.802 520.549,73.802 520.549,59.153 485.904,59.153 485.904,99.106 
		528.521,99.106 528.521,107.984 485.904,107.984 485.904,149.715 539.222,149.715 539.222,135.064 547.509,135.064 
		547.509,158.444 	"/>
	<path clip-path="url(#SVGID_2_)" fill="#FFFFFF" d="M549.413,104.582h20.421c9.47,0,15.586-2.269,18.349-6.807
		c1.38-2.268,2.294-4.588,2.737-6.955c0.444-2.368,0.666-5.35,0.666-8.953c0-3.599-0.222-6.585-0.666-8.952
		c-0.443-2.368-1.357-4.685-2.737-6.955c-2.763-4.536-8.879-6.807-18.349-6.807h-20.421l-10.486-0.012v-8.718h30.907
		c15.782,0,25.6,4.49,29.447,13.466c1.279,2.959,2.095,5.77,2.441,8.434c0.345,2.663,0.518,5.87,0.518,9.618
		c0,3.75-0.198,7.006-0.592,9.767c-0.396,2.763-1.234,5.574-2.516,8.435c-2.467,5.822-7.694,9.717-15.686,11.69
		c2.761,1.975,5.18,5.229,7.251,9.767l12.726,29.447h9.175v7.397h-17.313l-14.945-35.07c-1.775-4.044-4.095-6.732-6.955-8.063
		c-2.862-1.333-6.955-1.999-12.283-1.999h-11.688v37.735h8.878v7.397H529.88v-7.397h8.879v-46.463L549.413,104.582z"/>
	<path clip-path="url(#SVGID_2_)" fill="#FFFFFF" d="M611.856,57.82h-8.88v-7.398h20.718l54.455,90.413V57.82h-8.88v-7.398h28.412
		v7.398h-8.879v100.624h-11.838l-60.587-100.59L611.856,57.82z M622.51,151.046h8.878v7.398h-28.411v-7.398h8.88H622.51z"/>
	<path clip-path="url(#SVGID_2_)" fill="#FFFFFF" d="M707.199,149.714h10.16c6.807,0,12.356-0.984,16.647-2.96
		c4.291-1.972,7.472-5.128,9.545-9.47c2.071-4.341,3.425-8.927,4.069-13.762c0.64-4.832,0.962-11.196,0.962-19.089
		c0-7.891-0.322-14.254-0.962-19.089c-0.645-4.832-1.998-9.42-4.069-13.762c-2.073-4.34-5.254-7.496-9.545-9.471
		c-4.291-1.971-9.841-2.959-16.647-2.959h-10.16l-20.32,0.029v-8.759h30.48c12.727,0,21.948,2.22,27.672,6.658
		c3.057,2.368,5.522,4.958,7.397,7.77c1.874,2.811,3.306,6.387,4.292,10.727c1.676,7.499,2.517,16.056,2.517,25.674
		c0,9.619-0.248,16.92-0.74,21.901c-0.495,4.983-1.554,9.891-3.183,14.724c-1.628,4.834-3.972,8.634-7.028,11.395
		c-6.61,6.118-16.92,9.174-30.927,9.174h-19.693v-8.728L707.199,149.714z"/>
	<polygon clip-path="url(#SVGID_2_)" fill="#FFFFFF" points="699.802,158.444 699.802,151.047 768.483,151.047 768.483,57.821 
		759.604,57.821 759.604,50.423 821.9,50.423 821.9,73.802 813.614,73.802 813.614,59.153 779.138,59.153 779.138,99.106 
		819.256,99.106 819.256,107.984 779.138,107.984 779.138,149.715 853.654,149.715 861.941,158.444 	"/>
	<path clip-path="url(#SVGID_2_)" fill="#FFFFFF" d="M893.331,50.422h7.991v31.963h-7.991c-0.592-8.188-2.886-14.428-6.881-18.72
		c-3.995-4.291-10.68-6.436-20.051-6.436c-9.669,0-16.772,2.663-21.308,7.99c-3.75,4.539-6.02,12.233-6.808,23.085
		c-0.395,4.242-0.592,9.718-0.592,16.425c0,6.71,0.122,12.037,0.37,15.98c0.245,3.947,0.911,8.19,1.998,12.728
		c1.084,4.538,2.664,7.941,4.734,10.21c4.832,5.327,12.135,7.991,21.9,7.991c9.768,0,16.448-2.169,20.051-6.513
		c3.602-4.34,5.551-10.356,5.847-18.053l8.729,0.445c-0.395,5.327-1.136,9.84-2.22,13.539c-1.086,3.699-2.812,7.129-5.179,10.285
		c-4.736,6.116-13.417,9.174-26.045,9.174c-12.43,0-21.455-2.269-27.078-6.808c-2.96-2.465-5.379-5.152-7.251-8.063
		c-1.875-2.91-3.257-6.684-4.145-11.321c-1.579-7.595-2.367-16.892-2.367-27.893c0-11,0.468-19.608,1.405-25.822
		c0.938-6.215,2.761-11.935,5.476-17.166c2.713-5.227,6.732-9.049,12.06-11.467c5.328-2.417,12.135-3.626,20.421-3.626
		c12.923,0,21.901,4.343,26.932,13.022V50.422z"/>
	<path clip-path="url(#SVGID_2_)" fill="#FFFFFF" d="M935.039,100.326l27.365-42.506h-7.843v-7.398h26.932v7.398h-7.99
		l-30.038,46.169l31.666,47.057h7.844v7.398h-26.934v-7.398h7.547l-28.56-42.914L935.039,100.326z M923.247,151.046h8.878v7.398
		h-28.41v-7.398h8.879V57.82h-19.263v-7.398h38.794v7.398h-8.878V151.046z"/>
</g>
</svg>
