<?xml version="1.0" encoding="utf-8"?>
<!-- Generator: Adobe Illustrator 18.1.0, SVG Export Plug-In . SVG Version: 6.00 Build 0)  -->
<!DOCTYPE svg PUBLIC "-//W3C//DTD SVG 1.1//EN" "http://www.w3.org/Graphics/SVG/1.1/DTD/svg11.dtd">
<svg version="1.1" id="Layer_1" xmlns="http://www.w3.org/2000/svg" xmlns:xlink="http://www.w3.org/1999/xlink" x="0px" y="0px"
	 viewBox="0 0 200 50" enable-background="new 0 0 200 50" xml:space="preserve">
<g>
	<path fill="#FFFFFF" d="M23.7,4h-3.3l-0.2,0.2c0,0-2.4,2.5-4.1,4.2l-0.9-0.9c-0.4-0.4-0.8-0.6-1.3-0.6c-0.6,0-1.1,0.3-1.6,0.8
		l-7.5,7.5l-0.2,0.2c-0.4,0.4-1,1-1,1.7c0,0.5,0.3,0.8,0.5,1l1,1.1c-1.7,1.7-3.9,4-3.9,4L1,23.4v3.3l0.1,0.1c0,0,2.5,2.4,4.2,4.1
		l-0.8,0.9c-0.4,0.4-0.6,0.8-0.6,1.3c0,0.6,0.3,1.1,0.9,1.6l7.5,7.5l0.2,0.3l0,0l0,0c0.1,0.1,0.1,0.1,0.2,0.2c0.5,0.5,1,1,1.6,1
		c0.5,0,0.8-0.3,1-0.5l1.1-1.1c1.7,1.7,3.9,3.9,4,3.9l0.1,0.1h3.2l0.2-0.2c0,0,2.4-2.5,4.1-4.2l0.9,0.9c0.4,0.4,0.8,0.6,1.3,0.6h0.1
		c0.5,0,1-0.3,1.6-0.9l7.5-7.5l0.2-0.2c0.5-0.5,1.1-1.1,1.1-1.7c0-0.5-0.3-0.8-0.5-1L39,30.5c1.7-1.7,3.9-3.9,3.9-4l0.1-0.1l0-0.1
		v-3.2L42.8,23c0,0-2.5-2.4-4.2-4.1l0.9-0.9c0.4-0.4,0.7-0.8,0.6-1.4c0-0.4-0.3-1-0.9-1.6l-7.5-7.5l-0.2-0.2c-0.3-0.4-0.8-1-1.5-1
		c-0.5,0-0.8,0.3-1,0.5l-1.2,1C26.1,6.3,23.8,4.1,23.7,4L23.7,4L23.7,4z M14,11.5c0.7,0,1.2-0.4,1.5-0.7c0.8-0.8,6.1-6.2,6.2-6.3
		L22,4.2l0.2,0.2c0.1,0.1,5.5,5.4,6.3,6.2c0.5,0.5,1,0.7,1.4,0.7c0.7,0,1.5-0.4,2.3-1.3l0.7,0.7l-1.7,1.7C31,12.7,30.8,13,30.4,13
		c-0.5,0-1.1-0.4-1.9-1.2l-6.2-6.2l-0.2-0.2l-0.2,0.2l-6,6c-0.7,0.7-1.4,1.2-1.9,1.2c0,0-0.1,0-0.1,0l0,0h0c-0.2,0-0.5-0.2-0.7-0.4
		c-0.1,0-0.1-0.1-0.2-0.1l-1.7-1.7l0.3-0.3c0.7,0.7,1.3,1.1,1.9,1.3l0,0h0c0,0,0.1,0,0.1,0C13.9,11.5,13.9,11.5,14,11.5L14,11.5z
		 M16.8,12.6L22,7.4l5.4,5.4c1,1,2,1.5,2.9,1.5c0.8,0,1.4-0.5,1.9-0.9l0,0l0,0l1.7-1.7l1.6,1.6L33.8,15c-0.4,0.4-0.9,1-0.9,1.9
		c0,0.9,0.5,1.8,1.6,2.8l5.2,5.2l-5.4,5.4c-1,1-1.5,2-1.5,2.8c0,0.7,0.3,1.3,0.9,1.9l1.7,1.7l-1.6,1.6L32,36.7
		c-0.4-0.4-1-0.9-1.9-0.9c-0.9,0-1.8,0.5-2.8,1.6l-5.2,5.2l-5.4-5.4c-1.1-1.1-1.9-1.6-2.8-1.6c-0.1,0-0.1,0-0.2,0
		c-0.7,0.1-1.2,0.5-1.5,0.7c-0.1,0-0.1,0.1-0.2,0.1l0,0l0,0l-1.8,1.7l-1.6-1.6l1.7-1.7c0.4-0.4,0.9-1,0.9-1.9c0-0.9-0.5-1.8-1.6-2.8
		L4.5,25l5.4-5.4c1-1,1.5-2,1.5-2.8c0-0.7-0.3-1.3-0.9-1.9l-1.7-1.7l1.6-1.6l1.7,1.7c0.3,0.3,0.9,0.9,1.7,0.9c0.1,0,0.1,0,0.2,0
		C14.9,14.1,15.9,13.6,16.8,12.6L16.8,12.6z M29.8,7.8C29.8,7.8,29.8,7.8,29.8,7.8c0.2,0,0.6,0.4,0.8,0.6l0,0l0.1,0.1l0.1,0.1
		l0.4,0.4C30.7,9.7,30.2,10,30,10c-0.2,0-0.3-0.1-0.5-0.3l-0.8-0.8L29.8,7.8L29.8,7.8z M12.8,9.1l0.5-0.5c0.4-0.4,0.6-0.4,0.7-0.4
		c0.1,0,0.2,0.1,0.3,0.2l0.9,0.9c0,0-0.1,0.1-0.1,0.1c-0.2,0.2-0.3,0.3-0.4,0.4c-0.2,0.2-0.3,0.3-0.5,0.3
		C13.9,10.1,13.4,9.8,12.8,9.1L12.8,9.1z M7.2,14.7L7.9,14l1.7,1.7c0.2,0.2,0.5,0.5,0.5,0.9c0,0.5-0.4,1.1-1.2,1.9l-6.2,6.2
		l-0.2,0.2l0.2,0.2l6,6c1.7,1.7,1.1,2.4,0.6,2.8l-1.7,1.7l-0.3-0.3c0.9-0.9,1.3-1.6,1.3-2.3c0-0.5-0.2-1-0.7-1.5
		c-0.8-0.8-6.3-6.1-6.4-6.2L1.3,25l0.3-0.3c0.1-0.1,5.4-5.5,6.2-6.3C9.1,17.1,8.3,15.8,7.2,14.7L7.2,14.7z M35.3,31.3l6.2-6.2
		l0.2-0.2l-0.2-0.2l-6-6c-1.7-1.7-1.1-2.4-0.6-2.8l1.7-1.7l0.3,0.3c-0.7,0.7-1.3,1.5-1.3,2.3c0,0.5,0.2,1,0.7,1.5
		c0.8,0.8,6.2,6.1,6.3,6.2l0.3,0.3l-0.2,0.2c-0.1,0.1-5.4,5.5-6.2,6.3C35,32.7,35.8,34,37,35.1l-0.7,0.7l-1.7-1.7
		c-0.3-0.3-0.5-0.5-0.5-0.9C34.1,32.9,34.3,32.3,35.3,31.3L35.3,31.3z M37.8,18l-0.3-0.3l-0.2-0.2C37,17.3,37,17.2,37,17
		c0-0.3,0.4-0.7,0.9-1.3l0.5,0.5c0.2,0.3,0.4,0.5,0.4,0.7c0,0.1,0,0.2-0.2,0.3L37.8,18L37.8,18z M4.9,17.1c0-0.1,0.4-0.5,0.6-0.7
		l0,0l0.1-0.1l0.2-0.2l0.4-0.4c0.5,0.6,0.8,1,0.9,1.3c0,0.2-0.1,0.3-0.3,0.6l-0.2,0.2L6,18.3L4.9,17.1C4.9,17.2,4.9,17.1,4.9,17.1
		L4.9,17.1z M37.3,32.3c0,0,0.1-0.1,0.2-0.1c0.2-0.1,0.4-0.4,0.6-0.6l1.1,1.1c0,0,0.1,0.1,0.1,0.1c-0.1,0.2-0.4,0.5-0.6,0.7l0,0
		l-0.7,0.7C36.8,32.9,37,32.7,37.3,32.3L37.3,32.3L37.3,32.3z M5.5,32.7l0.9-0.9l0.3,0.3l0.2,0.2c0.3,0.3,0.3,0.4,0.3,0.5
		c0,0.3-0.4,0.7-0.9,1.3l-0.5-0.5C5.2,33.1,5.3,33,5.5,32.7C5.5,32.7,5.5,32.7,5.5,32.7L5.5,32.7z M11.2,39.2l1.7-1.7
		c0.3-0.3,0.5-0.5,0.9-0.5c0.3,0,1,0.2,2,1.1l6.2,6.2l0.2,0.2l0.2-0.2l6-6c0.8-0.8,1.4-1.1,1.9-1.1c0.4,0,0.6,0.2,0.9,0.5l1.7,1.7
		l-0.4,0.3c-0.7-0.7-1.5-1.4-2.3-1.4c-0.5,0-1,0.2-1.5,0.7c-0.8,0.8-6.1,6.2-6.2,6.3l-0.3,0.3l-0.1-0.1c-0.1-0.1-5.5-5.4-6.3-6.2
		c-0.5-0.5-1-0.7-1.5-0.7c-0.7,0-1.5,0.5-2.3,1.3L11.2,39.2L11.2,39.2z M29,40.6l0.5-0.5c0.2-0.2,0.3-0.3,0.5-0.3
		c0.3,0,0.7,0.3,1.4,0.9l-0.5,0.5c-0.4,0.4-0.6,0.4-0.7,0.4c-0.1,0-0.2-0.1-0.3-0.2L29,40.6L29,40.6z M12.8,40.8
		c0.6-0.6,1.1-0.9,1.4-0.9c0.2,0,0.3,0.1,0.4,0.3l0,0l0,0l0.8,0.8l-1.1,1.1c0,0-0.1,0.1-0.1,0.1c-0.2-0.1-0.5-0.4-0.7-0.6l0,0
		l-0.1-0.1l-0.1-0.1L12.8,40.8L12.8,40.8z"/>
</g>
<g>
	<path fill="#FFFFFF" d="M22.1,8.8L21.9,9l-6.1,6.1h-3.3h-0.3v0.3v3.3l-6.1,6.1L6,25l0.2,0.2l6.1,6.1v3.3v0.3h0.3h3.3l6.1,6.1
		l0.2,0.2l0.2-0.2l6.1-6.1h3.3H32v-0.3v-3.3l6.1-6.1l0.2-0.2L38,24.8L32,18.7v-3.3v-0.3h-0.3h-3.3L22.3,9L22.1,8.8L22.1,8.8z
		 M13.6,16.5h2.7h0.1l0.1-0.1l5.6-5.6l5.6,5.6l0.1,0.1h0.1h2.7v2.7v0.1l0.1,0.1l5.6,5.6l-5.6,5.6l-0.1,0.1v0.1v2.7h-2.7h-0.1
		l-0.1,0.1l-5.6,5.6l-5.6-5.6l-0.1-0.1h-0.1h-2.7v-2.7v-0.1l-0.1-0.1L7.9,25l5.6-5.6l0.1-0.1v-0.1V16.5L13.6,16.5z"/>
</g>
<path fill="#FFFFFF" d="M26.3,27.1v4.2l-4.1,2.3L18,31.3v-4.7l4.7-2.6c0.3-0.2,0.6-0.5,0.6-0.9l0.1-3.3h-2v2.6l-2.3,1.3L18,23.3
	v-4.6l4.1-2.3l4.1,2.3v4.7L21.8,26c-1.8,1-3,1.8-3,4.3V31h2.1v-0.8c0-1.4,0.4-1.6,2-2.5l5-2.9c0.3-0.2,0.5-0.5,0.5-0.9v-5.8
	c0-0.4-0.2-0.7-0.5-0.9l-5.1-2.9c-0.3-0.2-0.7-0.2-1,0l-5.2,2.9c-0.3,0.2-0.6,0.5-0.6,0.9v5.8c0,0.4,0.3,0.7,0.6,0.9L17,25l-0.4,0.2
	c-0.3,0.2-0.7,0.5-0.7,0.9V32c0,0.4,0.4,0.7,0.7,0.9l5.1,2.9c0.2,0.1,0.4,0.1,0.6,0.1s0.4-0.1,0.5-0.1l5-2.9
	c0.3-0.2,0.5-0.5,0.5-0.9v-4.8L26.3,27.1L26.3,27.1z"/>
<path fill="#FFFFFF" d="M45.5,15.9v-1.8h7.7c2.8,0,4.6,0.7,5.5,2.1c0.4,0.7,0.7,1.4,0.8,2.1c0.1,0.7,0.2,1.5,0.2,2.4
	c0,0.9,0,1.7-0.1,2.2c-0.1,0.6-0.2,1.2-0.5,1.8c-0.3,0.6-0.6,1.2-1.1,1.5c-1.1,0.9-2.7,1.3-4.9,1.3h-3.8v6.7H58v1.5H45.5v-1.5h1.8
	v-8.5l2.1,0h3.8c1.9,0,3.1-0.5,3.7-1.5c0.3-0.5,0.5-1,0.6-1.5c0.1-0.5,0.1-1.2,0.1-2c0-0.8,0-1.5-0.1-2c-0.1-0.5-0.3-1-0.6-1.6
	c-0.6-1-1.8-1.5-3.7-1.5h-3.8L45.5,15.9z"/>
<path fill="#FFFFFF" d="M69.5,27.1L65.8,16l-3.6,11.1l-0.6,1.8l-1.8,5.5h1.8v1.5h-5.3v-1.5h1.4l6.8-20.3h2.9L74,34.4h1.4v1.5h-5.3
	v-1.5h1.8l-1.8-5.5L69.5,27.1z"/>
<path fill="#FFFFFF" d="M84.5,18.8h-1.7v-3h-4v18.5h2.4v1.5h-6.9v-1.5h2.4V15.9h-5v3h-1.7v-4.7h14.4V18.8z"/>
<path fill="#FFFFFF" d="M98.6,18.8h-1.7v-3h-6.3v18.5H93v1.5h-6.9v-1.5h2.4V15.9h-4v3h-1.7v-4.7h15.8V18.8z"/>
<path fill="#FFFFFF" d="M94.9,35.9v-1.5h1.8V15.6h-1.8v-1.5h12.6v4.7h-1.7v-3h-7v8h8.6v1.8h-8.6v8.4h10.7v-3h1.7v4.7H94.9z"/>
<path fill="#FFFFFF" d="M111.7,25h4.1c1.9,0,3.1-0.5,3.7-1.4c0.3-0.5,0.5-0.9,0.6-1.4c0.1-0.5,0.1-1.1,0.1-1.8c0-0.7,0-1.3-0.1-1.8
	c-0.1-0.5-0.3-0.9-0.6-1.4c-0.6-0.9-1.8-1.4-3.7-1.4h-4.1l-2.1,0v-1.8h6.2c3.2,0,5.2,0.9,5.9,2.7c0.3,0.6,0.4,1.2,0.5,1.7
	c0.1,0.5,0.1,1.2,0.1,1.9c0,0.8,0,1.4-0.1,2c-0.1,0.6-0.2,1.1-0.5,1.7c-0.5,1.2-1.5,2-3.2,2.4c0.6,0.4,1,1.1,1.5,2l2.6,5.9h1.8v1.5
	h-3.5l-3-7.1c-0.4-0.8-0.8-1.4-1.4-1.6c-0.6-0.3-1.4-0.4-2.5-0.4h-2.4v7.6h1.8v1.5h-5.7v-1.5h1.8V25L111.7,25z"/>
<path fill="#FFFFFF" d="M124.2,15.6h-1.8v-1.5h4.2l11,18.2V15.6h-1.8v-1.5h5.7v1.5h-1.8v20.3h-2.4l-12.2-20.3L124.2,15.6z
	 M126.4,34.4h1.8v1.5h-5.7v-1.5h1.8H126.4z"/>
<path fill="#FFFFFF" d="M143.4,34.1h2c1.4,0,2.5-0.2,3.4-0.6c0.9-0.4,1.5-1,1.9-1.9c0.4-0.9,0.7-1.8,0.8-2.8c0.1-1,0.2-2.3,0.2-3.8
	c0-1.6-0.1-2.9-0.2-3.8c-0.1-1-0.4-1.9-0.8-2.8c-0.4-0.9-1.1-1.5-1.9-1.9c-0.9-0.4-2-0.6-3.4-0.6h-2l-4.1,0v-1.8h6.1
	c2.6,0,4.4,0.4,5.6,1.3c0.6,0.5,1.1,1,1.5,1.6c0.4,0.6,0.7,1.3,0.9,2.2c0.3,1.5,0.5,3.2,0.5,5.2c0,1.9,0,3.4-0.1,4.4
	c-0.1,1-0.3,2-0.6,3c-0.3,1-0.8,1.7-1.4,2.3c-1.3,1.2-3.4,1.8-6.2,1.8h-4v-1.8L143.4,34.1z"/>
<path fill="#FFFFFF" d="M142,35.9v-1.5h13.8V15.6H154v-1.5h12.5v4.7h-1.7v-3h-6.9v8h8.1v1.8h-8.1v8.4h15l1.7,1.8H142z"/>
<path fill="#FFFFFF" d="M180.9,14.1h1.6v6.4h-1.6c-0.1-1.6-0.6-2.9-1.4-3.8c-0.8-0.9-2.2-1.3-4-1.3c-1.9,0-3.4,0.5-4.3,1.6
	c-0.8,0.9-1.2,2.5-1.4,4.6c-0.1,0.9-0.1,2-0.1,3.3c0,1.4,0,2.4,0.1,3.2c0,0.8,0.2,1.6,0.4,2.6c0.2,0.9,0.5,1.6,1,2.1
	c1,1.1,2.4,1.6,4.4,1.6s3.3-0.4,4-1.3c0.7-0.9,1.1-2.1,1.2-3.6l1.8,0.1c-0.1,1.1-0.2,2-0.4,2.7c-0.2,0.7-0.6,1.4-1,2.1
	c-1,1.2-2.7,1.8-5.2,1.8c-2.5,0-4.3-0.5-5.5-1.4c-0.6-0.5-1.1-1-1.5-1.6c-0.4-0.6-0.7-1.3-0.8-2.3c-0.3-1.5-0.5-3.4-0.5-5.6
	c0-2.2,0.1-3.9,0.3-5.2c0.2-1.3,0.6-2.4,1.1-3.5c0.5-1.1,1.4-1.8,2.4-2.3c1.1-0.5,2.4-0.7,4.1-0.7c2.6,0,4.4,0.9,5.4,2.6V14.1z"/>
<path fill="#FFFFFF" d="M189.3,24.2l5.5-8.6h-1.6v-1.5h5.4v1.5h-1.6l-6,9.3l6.4,9.5h1.6v1.5h-5.4v-1.5h1.5l-5.8-8.6L189.3,24.2z
	 M187,34.4h1.8v1.5H183v-1.5h1.8V15.6h-3.9v-1.5h7.8v1.5H187V34.4z"/>
</svg>
