<?xml version="1.0" encoding="utf-8"?>
<!-- Generator: Adobe Illustrator 18.0.0, SVG Export Plug-In . SVG Version: 6.00 Build 0)  -->
<!DOCTYPE svg PUBLIC "-//W3C//DTD SVG 1.1//EN" "http://www.w3.org/Graphics/SVG/1.1/DTD/svg11.dtd">
<svg version="1.1" id="Layer_1" xmlns="http://www.w3.org/2000/svg" xmlns:xlink="http://www.w3.org/1999/xlink" x="0px" y="0px"
	 viewBox="0 0 200 50" enable-background="new 0 0 200 50" xml:space="preserve">
<g>
	<path fill="#FFFFFF" d="M8.7,19.6l-0.8-0.5C7.8,19.1,7.6,19,7.4,19c-0.2,0-0.3,0-0.4,0.1l-0.8,0.5c-0.3,0.1-0.4,0.5-0.4,0.8v1
		c0,0.3,0.2,0.6,0.4,0.8L7,22.6c0.1,0.1,0.3,0.1,0.4,0.1c0.2,0,0.3,0,0.4-0.1l0.8-0.5C9,22,9.2,21.7,9.2,21.4v-1
		C9.2,20.1,9,19.8,8.7,19.6z"/>
	<path fill="#FFFFFF" d="M69.8,19.6L69,19.1c-0.1-0.1-0.3-0.1-0.4-0.1c-0.2,0-0.3,0-0.4,0.1l-0.8,0.5c-0.3,0.1-0.4,0.5-0.4,0.8v1
		c0,0.3,0.2,0.6,0.4,0.8l0.8,0.5c0.1,0.1,0.3,0.1,0.4,0.1c0.2,0,0.3,0,0.4-0.1l0.8-0.5c0.3-0.1,0.4-0.5,0.4-0.8v-1
		C70.3,20.1,70.1,19.8,69.8,19.6z"/>
	<path fill="#FFFFFF" d="M148.2,23.3l-0.8-0.5c-0.1-0.1-0.3-0.1-0.4-0.1c-0.2,0-0.3,0-0.4,0.1l-0.8,0.5c-0.3,0.1-0.4,0.5-0.4,0.8v1
		c0,0.3,0.2,0.6,0.4,0.8l0.8,0.5c0.1,0.1,0.3,0.1,0.4,0.1c0.2,0,0.3,0,0.4-0.1l0.8-0.5c0.3-0.1,0.4-0.5,0.4-0.8v-1
		C148.7,23.8,148.5,23.4,148.2,23.3z"/>
	<path fill="#FFFFFF" d="M178.3,23.3l-0.8-0.5c-0.1-0.1-0.3-0.1-0.4-0.1c-0.2,0-0.3,0-0.4,0.1l-0.8,0.5c-0.3,0.1-0.4,0.5-0.4,0.8v1
		c0,0.3,0.2,0.6,0.4,0.8l0.8,0.5c0.1,0.1,0.3,0.1,0.4,0.1c0.2,0,0.3,0,0.4-0.1l0.8-0.5c0.3-0.1,0.4-0.5,0.4-0.8v-1
		C178.7,23.8,178.5,23.4,178.3,23.3z"/>
	<path fill="#FFFFFF" d="M24.7,29.2l-0.8-0.5c-0.1-0.1-0.3-0.1-0.4-0.1c-0.2,0-0.3,0-0.4,0.1l-0.8,0.5c-0.3,0.1-0.4,0.5-0.4,0.8v1
		c0,0.3,0.2,0.6,0.4,0.8l0.8,0.5c0.1,0.1,0.3,0.1,0.4,0.1c0.2,0,0.3,0,0.4-0.1l0.8-0.5c0.3-0.1,0.4-0.5,0.4-0.8v-1
		C25.1,29.7,24.9,29.4,24.7,29.2z"/>
	<g>
		<path fill="#FFFFFF" d="M122.1,4.2h-3.3l-0.2,0.2c0,0-2.4,2.5-4.1,4.1l-0.9-0.9c-0.4-0.4-0.8-0.6-1.3-0.6c-0.5,0-1.1,0.3-1.6,0.8
			l-7.4,7.4l-0.2,0.2c-0.4,0.4-1,1-1,1.6c0,0.5,0.3,0.8,0.5,1l1,1.1c-1.7,1.7-3.8,3.9-3.8,3.9l-0.2,0.2v3.3l0.1,0.1
			c0,0,2.5,2.4,4.2,4.1l-0.8,0.9c-0.4,0.4-0.6,0.8-0.6,1.3c0,0.5,0.3,1.1,0.9,1.6l7.4,7.4l0.2,0.3l0,0l0,0c0.1,0.1,0.1,0.1,0.2,0.2
			c0.5,0.5,1,1,1.6,1c0.5,0,0.8-0.3,1-0.5l1.1-1.1c1.7,1.7,3.9,3.8,3.9,3.8l0.1,0.1h3.2l0.2-0.2c0,0,2.4-2.5,4.1-4.1l0.9,0.9
			c0.4,0.4,0.8,0.6,1.2,0.6h0.1c0.4,0,1-0.3,1.6-0.9l7.4-7.4l0.2-0.2c0.5-0.5,1-1,1-1.7c0-0.5-0.3-0.8-0.5-1l-1.1-1.1
			c1.7-1.7,3.8-3.9,3.8-3.9l0.1-0.1l0-0.1v-3.1l-0.1-0.1c0,0-2.5-2.4-4.1-4.1l0.9-0.9c0.4-0.4,0.7-0.8,0.6-1.3
			c0-0.4-0.3-0.9-0.9-1.5L130,7.9l-0.2-0.2c-0.3-0.4-0.8-1-1.5-1c-0.4,0-0.8,0.3-1,0.5l-1.2,1C124.5,6.5,122.2,4.3,122.1,4.2
			L122.1,4.2L122.1,4.2z M112.6,11.7c0.7,0,1.1-0.4,1.5-0.7c0.8-0.8,6.1-6.1,6.1-6.2l0.3-0.3l0.2,0.2c0.1,0.1,5.4,5.3,6.2,6.1
			c0.5,0.5,0.9,0.7,1.4,0.7c0.7,0,1.4-0.4,2.3-1.3l0.7,0.7l-1.7,1.7c-0.2,0.2-0.5,0.5-0.9,0.5c-0.5,0-1.1-0.4-1.8-1.1l-6.1-6.1
			l-0.2-0.2l-0.2,0.2l-5.9,5.9c-0.7,0.7-1.4,1.1-1.9,1.1c0,0-0.1,0-0.1,0l0,0h0c-0.2,0-0.5-0.2-0.7-0.4c-0.1,0-0.1-0.1-0.2-0.1
			l-1.7-1.7l0.3-0.3c0.7,0.6,1.3,1.1,1.8,1.2l0,0h0c0,0,0.1,0,0.1,0C112.4,11.7,112.5,11.7,112.6,11.7L112.6,11.7z M115.4,12.8
			l5.1-5.1l5.4,5.4c1,1,2,1.5,2.8,1.5c0.8,0,1.4-0.5,1.9-0.9l0,0l0,0l1.7-1.7l1.5,1.5l-1.7,1.6c-0.4,0.4-0.9,1-0.9,1.9
			c0,0.8,0.5,1.8,1.5,2.8l5.1,5.1l-5.4,5.4c-1,1-1.5,1.9-1.5,2.8c0,0.6,0.3,1.2,0.9,1.8l1.7,1.7l-1.6,1.6l-1.7-1.6
			c-0.4-0.4-1-0.9-1.8-0.9c-0.8,0-1.8,0.5-2.8,1.5l-5.1,5.1l-5.4-5.4c-1-1-1.9-1.5-2.7-1.5c-0.1,0-0.1,0-0.2,0
			c-0.7,0.1-1.2,0.5-1.5,0.7c-0.1,0-0.1,0.1-0.2,0.1l0,0l0,0l-1.7,1.7l-1.6-1.6l1.7-1.7c0.4-0.4,0.9-1,0.9-1.8
			c0-0.8-0.5-1.8-1.5-2.8l-5.1-5.1l5.4-5.4c1-1,1.5-1.9,1.5-2.8c0-0.6-0.3-1.2-0.9-1.8l-1.7-1.7l1.5-1.5l1.7,1.7
			c0.3,0.3,0.9,0.9,1.7,0.9c0.1,0,0.1,0,0.2,0C113.5,14.3,114.5,13.7,115.4,12.8L115.4,12.8z M128.1,8C128.2,8,128.2,8,128.1,8
			c0.2,0,0.6,0.4,0.8,0.6l0,0l0.1,0.1l0.1,0.1l0.4,0.4c-0.6,0.6-1.1,0.9-1.3,0.9c-0.2,0-0.3-0.1-0.5-0.3l-0.8-0.8L128.1,8L128.1,8z
			 M111.4,9.3l0.5-0.5c0.4-0.4,0.6-0.4,0.7-0.4c0.1,0,0.2,0.1,0.3,0.2l0.9,0.9c0,0-0.1,0.1-0.1,0.1c-0.2,0.2-0.3,0.3-0.4,0.4
			c-0.2,0.2-0.3,0.3-0.4,0.3C112.5,10.3,112,10,111.4,9.3L111.4,9.3z M105.8,14.8l0.7-0.7l1.7,1.7c0.2,0.2,0.5,0.5,0.5,0.9
			c0,0.5-0.4,1.1-1.1,1.8l-6.1,6.1l-0.2,0.2l0.2,0.2l5.9,5.9c1.7,1.7,1.1,2.3,0.6,2.8l-1.7,1.7l-0.3-0.3c0.9-0.9,1.3-1.6,1.3-2.2
			c0-0.5-0.2-1-0.7-1.5c-0.8-0.8-6.2-6.1-6.3-6.1L100,25l0.3-0.3c0.1-0.1,5.3-5.4,6.1-6.2C107.8,17.2,106.9,16,105.8,14.8
			L105.8,14.8z M133.5,31.2l6.1-6.1l0.2-0.2l-0.2-0.2l-6-5.9c-1.7-1.7-1.1-2.3-0.6-2.8l1.7-1.7l0.3,0.3c-0.7,0.7-1.3,1.5-1.3,2.3
			c0,0.5,0.2,1,0.7,1.4c0.8,0.8,6.1,6.1,6.2,6.1l0.3,0.3l-0.2,0.2c-0.1,0.1-5.3,5.4-6.1,6.2c-1.4,1.4-0.5,2.6,0.6,3.7l-0.7,0.7
			l-1.7-1.7c-0.3-0.3-0.5-0.5-0.5-0.9C132.4,32.8,132.6,32.2,133.5,31.2L133.5,31.2z M136.1,18.1l-0.3-0.3l-0.2-0.2
			c-0.3-0.3-0.3-0.4-0.3-0.5c0-0.3,0.3-0.7,0.9-1.3l0.5,0.5c0.2,0.3,0.4,0.5,0.4,0.7c0,0.1,0,0.2-0.2,0.3L136.1,18.1L136.1,18.1z
			 M103.6,17.2c0-0.1,0.4-0.5,0.6-0.7l0,0l0.1-0.1l0.2-0.2l0.4-0.4c0.5,0.6,0.8,1,0.9,1.3c0,0.2-0.1,0.3-0.3,0.6l-0.2,0.2l-0.6,0.6
			L103.6,17.2C103.6,17.3,103.6,17.2,103.6,17.2L103.6,17.2z M135.6,32.2c0,0,0.1-0.1,0.2-0.1c0.2-0.1,0.4-0.3,0.6-0.6l1.1,1.1
			c0,0,0.1,0.1,0.1,0.1c-0.1,0.2-0.4,0.5-0.6,0.7l0,0l-0.7,0.7C135.1,32.8,135.3,32.6,135.6,32.2L135.6,32.2L135.6,32.2z
			 M104.2,32.5l0.8-0.8l0.3,0.3l0.2,0.2c0.3,0.3,0.3,0.4,0.3,0.5c0,0.3-0.3,0.7-0.9,1.3l-0.5-0.5C103.8,33,103.9,32.9,104.2,32.5
			C104.1,32.6,104.2,32.6,104.2,32.5L104.2,32.5z M109.8,39l1.7-1.7c0.3-0.3,0.5-0.5,0.9-0.5c0.3,0,1,0.2,2,1.1l6.1,6.1l0.2,0.2
			l0.2-0.2l5.9-5.9c0.8-0.7,1.4-1.1,1.9-1.1c0.4,0,0.6,0.2,0.9,0.5l1.6,1.6l-0.4,0.3c-0.7-0.7-1.5-1.3-2.3-1.3c-0.5,0-1,0.2-1.4,0.7
			c-0.8,0.8-6.1,6.1-6.1,6.2l-0.3,0.3l-0.1-0.1c-0.1-0.1-5.4-5.3-6.2-6.1c-0.5-0.5-0.9-0.7-1.5-0.7c-0.7,0-1.4,0.5-2.3,1.2L109.8,39
			L109.8,39z M127.4,40.4l0.5-0.5c0.2-0.2,0.3-0.3,0.5-0.3c0.3,0,0.7,0.3,1.4,0.9l-0.5,0.5c-0.4,0.4-0.6,0.4-0.7,0.4
			c-0.1,0-0.2-0.1-0.3-0.2L127.4,40.4L127.4,40.4z M111.4,40.6c0.6-0.6,1.1-0.9,1.4-0.9c0.1,0,0.3,0.1,0.4,0.3l0,0l0,0l0.8,0.8
			l-1.1,1.1c0,0-0.1,0.1-0.1,0.1c-0.2-0.1-0.5-0.4-0.7-0.6l0,0l-0.1-0.1l-0.1-0.1L111.4,40.6L111.4,40.6z"/>
	</g>
	<g>
		<path fill="#FFFFFF" d="M120.6,9.1l-0.2,0.2l-6,6h-3.3h-0.3v0.3v3.3l-6,6l-0.2,0.2l0.2,0.2l6,6v3.3v0.3h0.3h3.3l6,6l0.2,0.2
			l0.2-0.2l6-6h3.3h0.3v-0.3v-3.3l6-6l0.2-0.2l-0.2-0.2l-6-6v-3.3v-0.3H130h-3.3l-6-6L120.6,9.1L120.6,9.1z M112.2,16.6h2.6h0.1
			l0.1-0.1l5.5-5.5l5.5,5.5l0.1,0.1h0.1h2.6v2.6v0.1l0.1,0.1l5.5,5.5l-5.5,5.5l-0.1,0.1v0.1v2.6h-2.6h-0.1l-0.1,0.1l-5.5,5.5
			l-5.5-5.5l-0.1-0.1h-0.1h-2.6v-2.6v-0.1l-0.1-0.1l-5.5-5.5l5.5-5.5l0.1-0.1v-0.1V16.6L112.2,16.6z"/>
	</g>
	<path fill="#FFFFFF" d="M124.7,27.1v4.2l-4.1,2.3l-4.1-2.3v-4.6l4.6-2.5c0.3-0.2,0.6-0.5,0.6-0.9l0.1-3.2h-2v2.6l-2.3,1.3l-1-0.5
		v-4.6l4.1-2.3l4.1,2.3v4.6l-4.5,2.6c-1.8,1-2.9,1.8-2.9,4.2v0.8h2v-0.8c0-1.4,0.4-1.6,2-2.5l4.9-2.9c0.3-0.2,0.5-0.5,0.5-0.9v-5.8
		c0-0.4-0.2-0.7-0.5-0.9l-5-2.9c-0.3-0.2-0.7-0.2-1,0l-5.1,2.9c-0.3,0.2-0.6,0.5-0.6,0.9v5.8c0,0.4,0.3,0.7,0.6,0.9l0.4,0.2
		l-0.4,0.2c-0.3,0.2-0.6,0.5-0.6,0.9v5.8c0,0.4,0.3,0.7,0.7,0.9l5.1,2.9c0.2,0.1,0.4,0.1,0.6,0.1c0.2,0,0.4,0,0.5-0.1l5-2.9
		c0.3-0.2,0.5-0.5,0.5-0.9v-4.8L124.7,27.1L124.7,27.1z"/>
	<g>
		<path fill="#FFFFFF" d="M79,34.2l-2.5-5.8c-0.4-0.9-0.9-1.5-1.4-1.9c1.6-0.4,2.6-1.2,3.1-2.3c0.3-0.6,0.4-1.1,0.5-1.7
			c0.1-0.5,0.1-1.2,0.1-1.9c0-0.7,0-1.4-0.1-1.9c-0.1-0.5-0.2-1.1-0.5-1.6c-0.8-1.8-2.7-2.6-5.8-2.6h-6.1V16l6.1,0
			c1.9,0,3.1,0.5,3.6,1.4c0.3,0.4,0.5,0.9,0.5,1.4c0.1,0.5,0.1,1.1,0.1,1.8c0,0.7,0,1.3-0.1,1.8c-0.1,0.5-0.3,0.9-0.5,1.4
			c-0.5,0.9-1.8,1.4-3.6,1.4h-6.1V34H55.8v-8.3h8.5v-1.8h-8.5V16h6.9v3h1.6v-4.5H27.5V19h1.6v-3h4.9v18.2h-2.6l-6.6-19.8H22
			l-6.6,19.8H7.2v-6.5H11c2.1,0,3.7-0.4,4.8-1.3c0.4-0.4,0.8-0.9,1.1-1.5c0.3-0.6,0.4-1.2,0.5-1.8c0.1-0.6,0.1-1.3,0.1-2.2
			c0-0.9-0.1-1.7-0.2-2.4c-0.1-0.7-0.4-1.3-0.8-2c-0.8-1.4-2.6-2.1-5.4-2.1H3.4V16l7.6,0c1.9,0,3.1,0.5,3.6,1.5
			c0.3,0.5,0.5,1,0.5,1.6c0.1,0.5,0.1,1.2,0.1,2c0,0.8,0,1.5-0.1,2c-0.1,0.5-0.3,1-0.5,1.5c-0.6,1-1.8,1.4-3.6,1.4H5.2v8.3H3.4v1.6
			h15.8v-1.6h-1.8l5.9-18l5.9,18h-1.8v1.6h10.9v-1.6h-2.2V16H40v3h1.8v-3h3.8v18.2h-2.4v1.6h6.9v-1.6h-2.4V16h5.9v18.2h-1.8v1.6H70
			v-1.6h-1.8v-7.3h2.4c1.1,0,1.9,0.1,2.4,0.4c0.6,0.3,1,0.8,1.4,1.6l3,6.9h7.1v-1.6H79z"/>
		<polygon fill="#FFFFFF" points="92,15.8 93.8,15.8 93.8,32.3 83,14.4 78.9,14.4 78.9,15.9 81.6,15.9 93.6,35.8 95.9,35.8 
			95.9,15.8 100.9,15.8 102.3,14.4 92,14.4 		"/>
		<polygon fill="#FFFFFF" points="198.3,34.2 192.1,24.9 198,15.8 199.5,15.8 199.5,14.4 194.2,14.4 194.2,15.8 195.8,15.8 
			190.4,24.2 190.4,25.8 196,34.2 194.6,34.2 194.6,35.8 199.9,35.8 199.9,34.2 		"/>
		<path fill="#FFFFFF" d="M182.1,14.4v1.4v0.7c-1-1.7-2.8-2.6-5.3-2.6c-1.6,0-3,0.2-4,0.7c-1.1,0.5-1.8,1.2-2.4,2.3
			c-0.5,1-0.9,2.2-1.1,3.4c-0.2,1.2-0.3,2.9-0.3,5.1c0,2.2,0.2,4,0.5,5.5c0.2,0.9,0.4,1.7,0.8,2.2c0.2,0.3,0.4,0.6,0.6,0.8h-11.4
			v-8.3h7.9v-1.8h-7.9V16h6.7v3h1.8v-4.5h-12.5v1.4h1.8v18.4H153c0.1,0,0.3-0.2,0.4-0.3c0.6-0.5,1.1-1.3,1.4-2.2
			c0.3-1,0.5-1.9,0.6-2.9c0.1-1,0.1-2.4,0.1-4.3c0-1.9-0.2-3.6-0.5-5.1c-0.2-0.9-0.5-1.6-0.8-2.1c-0.4-0.6-0.9-1-1.5-1.5
			c-1.1-0.9-3-1.3-5.5-1.3h-6.9V16l6.9,0c1.3,0,2.4,0.2,3.3,0.6c0.8,0.4,1.5,1,1.9,1.9c0.4,0.9,0.7,1.8,0.8,2.7
			c0.1,1,0.2,2.2,0.2,3.8c0,1.6-0.1,2.8-0.2,3.8c-0.1,1-0.4,1.9-0.8,2.7c-0.4,0.9-1,1.5-1.9,1.9c-0.8,0.4-1.9,0.6-3.3,0.6l-7.2,0
			l-1.7,1.8h35.3c0.9,0.2,2.1,0.4,3.4,0.4c2.5,0,4.2-0.6,5.1-1.8c0.5-0.6,0.8-1.3,1-2c0.2-0.7,0.4-1.6,0.4-2.7l-1.7-0.1
			c-0.1,1.5-0.4,2.7-1.2,3.6c-0.7,0.9-2,1.3-4,1.3c-1.9,0-3.4-0.5-4.3-1.6c-0.4-0.4-0.7-1.1-0.9-2c-0.2-0.9-0.3-1.7-0.4-2.5
			c0-0.8-0.1-1.8-0.1-3.2c0-1.3,0-2.4,0.1-3.2c0.2-2.1,0.6-3.7,1.3-4.6c0.9-1.1,2.3-1.6,4.2-1.6c1.9,0,3.2,0.5,4,1.3
			c0.8,0.8,1.2,2.1,1.4,3.7h1.6v-4.9h2.2v18.4h-1.8v1.6h5.7v-1.6h-1.8V15.8h1.8v-1.4H182.1z"/>
	</g>
</g>
</svg>
