<?xml version="1.0" encoding="utf-8"?>
<!-- Generator: Adobe Illustrator 18.1.0, SVG Export Plug-In . SVG Version: 6.00 Build 0)  -->
<!DOCTYPE svg PUBLIC "-//W3C//DTD SVG 1.1//EN" "http://www.w3.org/Graphics/SVG/1.1/DTD/svg11.dtd">
<svg version="1.1" id="Layer_1" xmlns="http://www.w3.org/2000/svg" xmlns:xlink="http://www.w3.org/1999/xlink" x="0px" y="0px"
	 viewBox="4 155 952 249.1" enable-background="new 4 155 952 249.1" xml:space="preserve">
<path fill="#FFFFFF" d="M29.8,253.3l-4.1-2.4c-0.6-0.3-1.4-0.5-2.2-0.5c-0.8,0-1.6,0.2-2.2,0.5l-4,2.4c-1.2,0.7-2.1,2.4-2.1,3.8v4.7
	c0,1.4,0.9,3.1,2.1,3.8l4.1,2.4c0.6,0.3,1.4,0.5,2.2,0.5c0.8,0,1.6-0.2,2.2-0.5l4.1-2.4c1.2-0.7,2.2-2.4,2.2-3.8v-4.7
	C32,255.7,31,254,29.8,253.3z"/>
<path fill="#FFFFFF" d="M325.8,253.3l-4.1-2.4c-0.6-0.3-1.4-0.5-2.2-0.5c-0.8,0-1.6,0.2-2.2,0.5l-4,2.4c-1.2,0.7-2.1,2.4-2.1,3.8
	v4.7c0,1.4,0.9,3.1,2.1,3.8l4.1,2.4c0.6,0.3,1.4,0.5,2.2,0.5c0.8,0,1.6-0.2,2.2-0.5l4.1-2.4c1.2-0.7,2.2-2.4,2.2-3.8v-4.7
	C328,255.7,327,254,325.8,253.3z"/>
<path fill="#FFFFFF" d="M705.5,271.2l-4.1-2.4c-0.6-0.3-1.4-0.5-2.2-0.5s-1.6,0.2-2.2,0.5l-4,2.4c-1.2,0.7-2.1,2.4-2.1,3.8v4.7
	c0,1.4,0.9,3.1,2.1,3.8l4.1,2.4c0.6,0.3,1.4,0.5,2.2,0.5s1.6-0.2,2.2-0.5l4.1-2.4c1.2-0.7,2.2-2.4,2.2-3.8V275
	C707.6,273.6,706.7,271.9,705.5,271.2z"/>
<path fill="#FFFFFF" d="M851,271.2l-4.1-2.4c-0.6-0.3-1.4-0.5-2.2-0.5s-1.6,0.2-2.2,0.5l-4,2.4c-1.2,0.7-2.1,2.4-2.1,3.8v4.7
	c0,1.4,0.9,3.1,2.1,3.8l4.1,2.4c0.6,0.3,1.4,0.5,2.2,0.5s1.6-0.2,2.2-0.5l4.1-2.4c1.2-0.7,2.2-2.4,2.2-3.8V275
	C853.2,273.6,852.3,271.9,851,271.2z"/>
<path fill="#FFFFFF" d="M107,299.9l-4.1-2.4c-0.6-0.3-1.4-0.5-2.2-0.5c-0.8,0-1.6,0.2-2.2,0.5l-4,2.4c-1.2,0.7-2.1,2.4-2.1,3.8v4.7
	c0,1.4,0.9,3.1,2.1,3.8l4.1,2.4c0.6,0.3,1.4,0.5,2.2,0.5c0.8,0,1.6-0.2,2.2-0.5l4.1-2.4c1.2-0.7,2.2-2.4,2.2-3.8v-4.7
	C109.2,302.3,108.2,300.6,107,299.9z"/>
<g>
	<path fill="#FFFFFF" d="M579,178.9h-16l-0.8,0.8c-0.1,0.1-11.6,12-19.7,20.1l-4.1-4.1c-1.8-1.8-3.9-2.7-6.1-2.7
		c-2.6,0-5.3,1.3-7.9,3.9l-35.8,35.9l-1.2,1.2c-2.1,2.1-4.6,4.6-4.6,7.9c0,2.2,1.2,3.7,2.3,4.8l4.9,5.3c-8.1,8.1-18.5,18.9-18.6,19
		l-0.8,0.8v15.9l0.4,0.4c0.1,0.1,12,11.7,20.1,19.7l-3.8,4.1c-1.8,1.8-2.7,3.9-2.7,6.1c0.1,2.7,1.5,5.3,4.3,7.8l35.8,35.8l1.1,1.5
		l0.1,0.1l0.1,0.1c0.3,0.3,0.5,0.5,0.8,0.8c2.3,2.3,4.6,4.7,7.6,4.7c2.2,0,3.7-1.2,4.8-2.3l5.3-5.3c8,8,18.8,18.4,18.9,18.6l0.4,0.4
		h15.3l1.1-1.2c0.1-0.1,11.6-12,19.7-20.1l4.1,4.1c1.7,1.7,3.9,2.7,6,2.7h0.4c2.2,0,4.6-1.4,7.5-4.3l35.9-35.9l1.2-1.2
		c2.5-2.5,5.1-5.1,5.1-8.4c0-2.2-1.2-3.7-2.3-4.8l-5.3-5.3c8-8,18.4-18.8,18.6-18.9l0.4-0.4V286v-15.2l-0.7-0.7
		c-0.1-0.1-12-11.6-20.1-19.7l4.1-4.1c1.7-1.7,3.2-3.7,2.7-6.5c-0.1-2.1-1.4-4.6-4.2-7.4l-35.9-35.8l-1.1-1.1
		c-1.4-2.1-3.6-4.7-7.3-4.7c-2.2,0-3.7,1.2-4.8,2.3l-5.7,5c-8.1-8.1-19-18.6-19.1-18.7L579,178.9L579,178.9z M532.9,215
		c3.3,0,5.5-1.9,7.2-3.5c3.8-3.8,29.4-29.7,29.6-30l1.4-1.5l1.1,1.1c0.3,0.3,26.2,25.8,30,29.6c2.3,2.3,4.6,3.5,6.8,3.5
		c3.5,0,7-1.9,11-6.1l3.5,3.3l-8,8c-1.1,1.1-2.4,2.4-4.4,2.4c-2.4,0-5.4-1.9-8.9-5.5l-29.6-29.7l-0.9-0.9l-0.9,0.9L542.4,215
		c-3.4,3.4-6.8,5.5-9,5.5c-0.1,0-0.3,0-0.4,0h-0.1h-0.1c-1.1,0-2.2-0.9-3.4-1.8c-0.3-0.2-0.5-0.4-0.8-0.6l-8-8l1.6-1.6
		c3.3,3.1,6.3,5.1,8.9,6l0.2,0.1h0.2c0.2,0,0.3,0,0.5,0.1C532.1,214.9,532.4,215,532.9,215L532.9,215z M546.4,220.1l24.8-24.8l26,26
		c4.9,4.9,9.5,7.4,13.8,7.4c4,0,6.7-2.2,9-4.2l0,0l0,0l8-8l7.5,7.5l-8.1,7.7c-1.9,1.9-4.4,4.9-4.4,9s2.5,8.5,7.5,13.6l24.8,24.8
		l-26,26c-5,5-7.4,9.4-7.3,13.6c0,3.1,1.4,6,4.3,8.9l8,8l-7.5,7.5l-8-7.7c-1.9-1.9-4.8-4.4-8.9-4.4c-4.1,0-8.5,2.4-13.6,7.5
		l-24.8,24.8l-26-26c-5.1-5.1-9.3-7.4-13.3-7.4c-0.3,0-0.7,0-1,0.1c-3.3,0.4-5.7,2.3-7.3,3.5c-0.3,0.2-0.6,0.4-0.8,0.6l-0.1,0.1
		l0-0.2l-8.4,8.1l-7.5-7.5l8-8c1.9-1.9,4.4-4.9,4.4-8.9c0-4.1-2.5-8.5-7.5-13.6l-24.8-24.8l26-26c5-5,7.4-9.4,7.3-13.6
		c0-3.1-1.4-6-4.3-8.9l-8-8l7.5-7.5l8,8c1.6,1.6,4.2,4.2,8.3,4.3c0.3,0,0.6,0,0.9,0C537.2,227.6,541.9,224.9,546.4,220.1
		L546.4,220.1z M608.1,197.3c0.2-0.1,0.4-0.1,0.4-0.2c0.7,0.2,2.6,2,3.6,2.9l0.2,0.2l0.6,0.6l0.6,0.6l2.1,2.1
		c-3,2.8-5.2,4.2-6.5,4.2c-0.8,0-1.3-0.5-2.4-1.5l-3.8-3.8L608.1,197.3L608.1,197.3z M527,203.6l2.6-2.6c1.8-1.8,2.8-2.1,3.3-2.1
		s0.9,0.3,1.5,0.9l4.1,4.1c-0.2,0.2-0.4,0.4-0.7,0.6c-0.9,0.8-1.6,1.5-2,2.1c-0.9,0.9-1.4,1.4-2.2,1.4
		C532.3,208.1,530.2,206.6,527,203.6L527,203.6z M500.1,230.1l3.5-3.3l8.1,8.1c1.2,1.2,2.5,2.5,2.4,4.5c0,2.4-1.9,5.4-5.5,8.9
		L479,277.9l-0.9,0.9l0.9,0.9l28.4,28.4c8.2,8.2,5.1,11.3,3.1,13.4l-8.1,8.1l-1.5-1.4c4.3-4.5,6.1-7.7,6.1-10.8
		c0-2.5-1.2-4.8-3.6-7.2c-3.8-3.8-30.2-29.4-30.4-29.6l-1.1-1l1.5-1.5c0.3-0.3,25.8-26.2,29.6-30
		C509.6,241.6,505.4,235.6,500.1,230.1L500.1,230.1z M634.4,309.4l29.6-29.6l0.9-0.9L664,278l-28.8-28.4c-8.2-8.2-5.1-11.3-3.1-13.3
		l8-8l1.6,1.6c-3.4,3.5-6.4,7.3-6.4,11.1c0,2.4,1.1,4.7,3.4,7c3.8,3.8,29.7,29.4,30,29.6l1.4,1.4l-1.1,1.1
		c-0.3,0.3-25.8,26.2-29.6,30c-6.6,6.6-2.4,12.5,3,18.1l-3.2,3.2l-8-8c-1.5-1.5-2.3-2.3-2.3-4.1
		C628.9,317.4,629.9,314.4,634.4,309.4L634.4,309.4z M646.7,246.2l-1.4-1.4l-1.2-1.2c-1.2-1.2-1.6-1.7-1.5-2.6
		c0.2-1.3,1.7-3.4,4.4-6.3l2.5,2.5c1.1,1.4,1.7,2.4,2.1,3.2c0,0.3-0.2,0.8-0.8,1.6L646.7,246.2L646.7,246.2z M489.4,241.8
		c0.2-0.7,2-2.6,2.9-3.6l0.2-0.2l0.4-0.4l0.8-0.8l2.1-2.1c2.6,2.8,4,4.8,4.2,6.1c0.1,0.9-0.3,1.4-1.5,2.7l-1,1l-2.7,2.7l-5.1-5.1
		C489.5,242,489.4,241.9,489.4,241.8L489.4,241.8z M644.3,314.4c0.2-0.2,0.4-0.4,0.7-0.7c0.8-0.7,1.9-1.7,3-3l5.2,5.3
		c0.2,0.2,0.3,0.3,0.4,0.4c-0.3,0.8-2,2.6-2.9,3.4l-0.2,0.2l-3.3,3.3C641.7,317.4,642.7,316.3,644.3,314.4L644.3,314.4L644.3,314.4z
		 M492.2,316l4.1-4.1l1.6,1.6l0.9,0.9c1.2,1.2,1.6,1.7,1.5,2.6c-0.2,1.3-1.7,3.4-4.4,6.3l-2.5-2.5c-2.8-2.8-2.3-3.3-1.4-4.5
		C492,316.2,492.1,316.1,492.2,316L492.2,316z M519.5,347.5l8-8c1.5-1.5,2.3-2.3,4.1-2.3c1.6,0,4.6,1,9.6,5.5l29.6,29.6l0.9,0.9
		l0.9-0.9l28.4-28.4c3.7-3.6,6.8-5.4,9.2-5.4c1.9,0,3,1.2,4.2,2.3l8,8l-1.8,1.5c-3.5-3.5-7.3-6.5-11.2-6.5c-2.4,0-4.7,1.1-7,3.4
		c-3.8,3.8-29.4,29.7-29.6,30l-1.4,1.4l-0.7-0.7c-0.3-0.3-26.2-25.8-30-29.6c-2.3-2.3-4.6-3.4-7-3.4c-3.6,0-7,2.4-11,6L519.5,347.5
		L519.5,347.5z M604.6,354.1l2.6-2.6c1-1,1.5-1.5,2.3-1.5c1.3,0,3.5,1.5,6.6,4.5l-2.6,2.6c-1.8,1.8-2.8,2.1-3.3,2.1
		s-0.9-0.3-1.5-0.9L604.6,354.1L604.6,354.1z M527,354.9c3.1-3,5.3-4.5,6.7-4.5c0.7,0,1.2,0.5,2.1,1.4l0,0l0,0l3.8,3.8l-5.3,5.3
		c-0.2,0.2-0.3,0.3-0.4,0.3c-0.8-0.3-2.6-2-3.4-2.9l-0.2-0.2l-0.6-0.6l-0.6-0.6L527,354.9L527,354.9z"/>
</g>
<g>
	<path fill="#FFFFFF" d="M571.5,202.2l-0.9,0.9l-29,29h-15.9h-1.3v1.3v15.9l-29,29l-0.9,0.9l0.9,0.9l29,29V325v1.3h1.3h15.9l29,29
		l0.9,0.9l0.9-0.9l29-29h15.9h1.3V325v-15.9l29-29l0.9-0.9l-0.9-0.9l-29-29v-15.9v-1.3h-1.3h-15.9l-29-29L571.5,202.2L571.5,202.2z
		 M530.9,238.6h12.8h0.5l0.4-0.4l26.9-26.9l26.9,26.9l0.4,0.4h0.5h12.8v12.8v0.5l0.4,0.4l26.9,26.9l-26.9,26.9l-0.4,0.4v0.5v12.8
		h-12.8h-0.5l-0.4,0.4l-26.9,26.9l-26.9-26.9l-0.4-0.4h-0.5h-12.8V307v-0.5l-0.4-0.4l-26.9-26.9l26.9-26.9l0.4-0.4v-0.5V238.6
		L530.9,238.6z"/>
</g>
<path fill="#FFFFFF" d="M591.5,289.5v20.2l-19.7,11l-19.8-11v-22.4l22.4-12.4c1.5-0.9,2.9-2.5,2.9-4.2l0.3-15.6h-9.5v12.6l-11,6.1
	l-5.1-2.5v-22.2l19.7-11.2l19.7,11.2v22.4L570,284c-8.6,4.9-14.3,8.6-14.3,20.5v3.7h9.9v-3.7c0-6.7,2.1-7.7,9.6-12l23.8-14
	c1.4-0.9,2.4-2.5,2.4-4.2v-27.9c0-1.8-0.8-3.4-2.3-4.2l-24.5-14c-1.5-0.9-3.3-0.9-4.7,0l-24.9,14c-1.5,0.9-2.9,2.5-2.9,4.2v27.9
	c0,1.8,1.4,3.4,3,4.3l2.2,1l-2.1,0.9c-1.5,0.9-3.1,2.6-3.1,4.3v27.9c0,1.8,1.7,3.4,3.2,4.3l24.5,14c0.8,0.5,1.8,0.6,2.7,0.6
	s1.8-0.2,2.6-0.6l24-14c1.5-0.9,2.3-2.6,2.3-4.3v-23.1L591.5,289.5L591.5,289.5z"/>
<g>
	<path fill="#FFFFFF" d="M370.3,324l-12.2-28c-2-4.3-4.3-7.4-6.9-9.3c7.7-1.9,12.7-5.6,15-11.2c1.2-2.7,2-5.4,2.4-8.1
		c0.4-2.6,0.6-5.8,0.6-9.3c0-3.6-0.2-6.7-0.5-9.2c-0.3-2.6-1.1-5.1-2.3-8c-3.7-8.6-13.1-12.8-28.2-12.8h-29.6v7.7l29.6-0.1
		c9.1,0,14.9,2.4,17.6,6.7c1.3,2.2,2.2,4.5,2.6,6.8s0.6,5.2,0.6,8.6c0,3.5-0.2,6.3-0.6,8.6c-0.4,2.3-1.3,4.5-2.6,6.7
		c-2.6,4.3-8.5,6.6-17.6,6.6h-29.6v43.1h-50.8v-40.2H299V274h-41.2v-38.3h33.5v14.4h7.7v-22H120.8v22h7.7v-14.4h23.9V324h-12.8
		l-32-95.8H93.9L61.7,324H22.2v-31.6h18.5c10.3,0,18-2.1,23.1-6.3c2.2-1.9,3.9-4.3,5.1-7.4c1.2-3,2-5.9,2.3-8.6s0.5-6.3,0.5-10.6
		c0-4.3-0.3-8.2-1-11.5s-2-6.5-4-9.8c-4.1-6.7-12.8-9.9-26.1-9.9H4v7.7h36.7c9,0,14.8,2.5,17.6,7.2c1.3,2.5,2.2,5.1,2.6,7.6
		c0.4,2.5,0.6,5.8,0.6,9.6c0,3.9-0.2,7.1-0.6,9.5c-0.4,2.5-1.3,4.7-2.6,7.1c-2.7,4.7-8.6,6.9-17.6,6.9H12.6V324H4v7.7h76.6V324h-8.7
		l28.8-87.1l28.8,87.1h-8.6v7.7h52.7V324H163v-88.1h18.2v14.4h8.6v-14.4H208V324h-11.5v7.7H230V324h-11.5v-88.1h28.7V324h-8.6v7.7
		h88.1V324h-8.6v-35.4h11.6c5.1,0,9,0.5,11.8,1.7c2.7,1.3,5,3.9,6.7,7.7l14.3,33.6h34.2V324H370.3z"/>
	<polygon fill="#FFFFFF" points="433.1,235 441.7,235 441.7,314.6 389.7,228.3 369.9,228.3 369.9,235.1 382.6,235.1 440.8,331.7 
		452.2,331.7 452.2,235 476.1,235 483.2,228.3 433.1,228.3 	"/>
	<polygon fill="#FFFFFF" points="948.2,324 917.9,279.1 946.7,235 954.1,235 954.1,228.3 928.2,228.3 928.2,235 936,235 
		909.8,275.7 909.8,283.1 937.2,324 930.1,324 930.1,331.7 956,331.7 956,324 	"/>
	<path fill="#FFFFFF" d="M869.8,228.3v6.8v3.4C865,230.2,856.4,226,844,226c-7.9,0-14.4,1.2-19.5,3.5s-8.9,6-11.5,11
		s-4.3,10.5-5.2,16.4c-0.9,6-1.3,14.2-1.3,24.7s0.8,19.4,2.3,26.7c0.9,4.4,2.2,8,4,10.8c0.9,1.4,1.9,2.9,3,3.9h-55v-40.2h38.3v-8.6
		h-38.3v-38.3h32.6v14.4h8.6v-22h-60.3v6.7h8.6v89h-21.2c0.7,0,1.4-0.9,2.1-1.5c2.9-2.6,5.2-6.2,6.7-10.8c1.6-4.6,2.6-9.3,3-14.1
		c0.5-4.8,0.7-11.7,0.7-21c0-9.2-0.8-17.4-2.4-24.6c-0.9-4.2-2.3-7.6-4.1-10.3s-4.2-5-7.1-7.3c-5.5-4.3-14.3-6.3-26.5-6.3h-33.6v7.7
		h33.6c6.5,0,11.8,1.2,15.9,3.1c4.1,1.9,7.2,5,9.1,9.2c2,4.2,3.3,8.6,3.9,13.2c0.6,4.6,0.9,10.8,0.9,18.3c0,7.6-0.3,13.7-0.9,18.3
		c-0.6,4.6-1.9,9-3.9,13.2s-5,7.2-9.1,9.1s-9.4,2.8-15.9,2.8h-34.9l-8.5,8.6h170.8c4.6,1,10.1,1.9,16.7,1.9c12.1,0,20.4-3,24.9-8.8
		c2.3-3,3.9-6.3,5-9.9c1-3.5,1.7-7.9,2.1-13l-8.4-0.4c-0.3,7.4-2.2,13.1-5.6,17.3c-3.5,4.2-9.8,6.2-19.2,6.2s-16.3-2.6-21-7.7
		c-2-2.2-3.5-5.4-4.5-9.8c-1-4.3-1.7-8.4-1.9-12.2c-0.2-3.8-0.4-8.9-0.4-15.3s0.2-11.7,0.6-15.7c0.8-10.4,2.9-17.8,6.5-22.1
		c4.3-5.1,11.1-7.7,20.4-7.7c9,0,15.4,2.2,19.2,6.3s6,10.4,6.6,18.1h7.6V235H888v89h-8.6v7.7h27.8V324h-8.6v-89h8.6v-6.7H869.8z"/>
</g>
<rect x="4" y="214" fill="#FFFFFF" width="505" height="7"/>
<rect x="4" y="339" fill="#FFFFFF" width="505" height="7"/>
<rect x="633" y="214" fill="#FFFFFF" width="323" height="7"/>
<rect x="633" y="339" fill="#FFFFFF" width="323" height="7"/>
</svg>
