<?xml version="1.0" encoding="utf-8"?>
<!-- Generator: Adobe Illustrator 18.1.1, SVG Export Plug-In . SVG Version: 6.00 Build 0)  -->
<!DOCTYPE svg PUBLIC "-//W3C//DTD SVG 1.1//EN" "http://www.w3.org/Graphics/SVG/1.1/DTD/svg11.dtd">
<svg version="1.1" id="Layer_1" xmlns="http://www.w3.org/2000/svg" xmlns:xlink="http://www.w3.org/1999/xlink" x="0px" y="0px"
	 viewBox="631.4 419.7 270.1 270.7" enable-background="new 631.4 419.7 270.1 270.7" xml:space="preserve">
<g>
	<path fill="#6B6B78" d="M777.1,419.7h-21.5l-1.1,1.1c-0.1,0.1-15.6,16.1-26.5,27l-5.5-5.5c-2.4-2.4-5.2-3.6-8.2-3.6
		c-3.5,0-7.1,1.7-10.6,5.2l-48.1,48.3l-1.6,1.6c-2.8,2.8-6.2,6.2-6.2,10.6c0,3,1.6,5,3.1,6.5l6.6,7.1c-10.9,10.9-24.9,25.4-25,25.5
		l-1.1,1.1V566l0.5,0.5c0.1,0.1,16.1,15.7,27,26.5l-5.1,5.5c-2.4,2.4-3.6,5.2-3.6,8.2c0.1,3.6,2,7.1,5.8,10.5l48.1,48.1l1.5,2
		l0.1,0.1l0.1,0.1c0.4,0.4,0.7,0.7,1.1,1.1c3.1,3.1,6.2,6.3,10.2,6.3c3,0,5-1.6,6.5-3.1l7.1-7.1c10.8,10.8,25.3,24.7,25.4,25
		l0.5,0.5h20.6l1.5-1.6c0.1-0.1,15.6-16.1,26.5-27l5.5,5.5c2.3,2.3,5.2,3.6,8.1,3.6h0.5c3,0,6.2-1.9,10.1-5.8l48.3-48.3l1.6-1.6
		c3.4-3.4,6.9-6.9,6.9-11.3c0-3-1.6-5-3.1-6.5l-7.1-7.1c10.8-10.8,24.7-25.3,25-25.4l0.5-0.5v-0.7v-20.4l-0.9-0.9
		c-0.1-0.1-16.1-15.6-27-26.5l5.5-5.5c2.3-2.3,4.3-5,3.6-8.7c-0.1-2.8-1.9-6.2-5.6-9.9l-48.3-48.1l-1.5-1.5
		c-1.9-2.8-4.8-6.3-9.8-6.3c-3,0-5,1.6-6.5,3.1l-7.7,6.7c-10.9-10.9-25.5-25-25.7-25.1L777.1,419.7L777.1,419.7z M715.1,468.2
		c4.4,0,7.4-2.6,9.7-4.7c5.1-5.1,39.5-39.9,39.8-40.3l1.9-2l1.5,1.5c0.4,0.4,35.2,34.7,40.3,39.8c3.1,3.1,6.2,4.7,9.1,4.7
		c4.7,0,9.4-2.6,14.8-8.2l4.7,4.4l-10.8,10.8c-1.5,1.5-3.2,3.2-5.9,3.2c-3.2,0-7.3-2.6-12-7.4L768.5,430l-1.2-1.2l-1.2,1.2
		l-38.2,38.2c-4.6,4.6-9.1,7.4-12.1,7.4c-0.1,0-0.4,0-0.5,0h-0.1H715c-1.5,0-3-1.2-4.6-2.4c-0.4-0.3-0.7-0.5-1.1-0.8l-10.8-10.8
		l2.2-2.2c4.4,4.2,8.5,6.9,12,8.1l0.3,0.1h0.3c0.3,0,0.4,0,0.7,0.1C714.1,468.1,714.5,468.2,715.1,468.2L715.1,468.2z M733.3,475.1
		l33.3-33.3l35,35c6.6,6.6,12.8,9.9,18.6,9.9c5.4,0,9-3,12.1-5.6l0,0l0,0l10.8-10.8l10.1,10.1l-10.9,10.4c-2.6,2.6-5.9,6.6-5.9,12.1
		c0,5.5,3.4,11.4,10.1,18.3l33.3,33.3l-35,35c-6.7,6.7-9.9,12.6-9.8,18.3c0,4.2,1.9,8.1,5.8,12l10.8,10.8l-10.1,10.1l-10.8-10.4
		c-2.6-2.6-6.5-5.9-12-5.9c-5.5,0-11.4,3.2-18.3,10.1L767,667.6l-35-35c-6.9-6.9-12.5-9.9-17.9-9.9c-0.4,0-0.9,0-1.3,0.1
		c-4.4,0.5-7.7,3.1-9.8,4.7c-0.4,0.3-0.8,0.5-1.1,0.8l-0.1,0.1v-0.3l-11.3,10.9L680.4,629l10.8-10.8c2.6-2.6,5.9-6.6,5.9-12
		c0-5.5-3.4-11.4-10.1-18.3l-33.3-33.3l35-35c6.7-6.7,9.9-12.6,9.8-18.3c0-4.2-1.9-8.1-5.8-12l-10.8-10.8l10.1-10.1l10.8,10.8
		c2.2,2.2,5.6,5.6,11.2,5.8c0.4,0,0.8,0,1.2,0C720.9,485.2,727.2,481.5,733.3,475.1L733.3,475.1z M816.2,444.4
		c0.3-0.1,0.5-0.1,0.5-0.3c0.9,0.3,3.5,2.7,4.8,3.9l0.3,0.3l0.8,0.8l0.8,0.8l2.8,2.8c-4,3.8-7,5.6-8.7,5.6c-1.1,0-1.7-0.7-3.2-2
		l-5.1-5.1L816.2,444.4L816.2,444.4z M707.2,452.9l3.5-3.5c2.4-2.4,3.8-2.8,4.4-2.8s1.2,0.4,2,1.2l5.5,5.5c-0.3,0.3-0.5,0.5-0.9,0.8
		c-1.2,1.1-2.2,2-2.7,2.8c-1.2,1.2-1.9,1.9-3,1.9C714.3,458.9,711.5,456.9,707.2,452.9L707.2,452.9z M671,488.5l4.7-4.4l10.9,10.9
		c1.6,1.6,3.4,3.4,3.2,6.1c0,3.2-2.6,7.3-7.4,12l-39.8,39.8l-1.2,1.2l1.2,1.2l38.2,38.2c11,11,6.9,15.2,4.2,18l-10.9,10.9l-2-1.9
		c5.8-6.1,8.2-10.4,8.2-14.5c0-3.4-1.6-6.5-4.8-9.7c-5.1-5.1-40.6-39.5-40.9-39.8l-1.5-1.3l2-2c0.4-0.4,34.7-35.2,39.8-40.3
		C683.8,504,678.2,495.9,671,488.5L671,488.5z M851.6,595.1l39.8-39.8l1.2-1.2l-1.2-1.2l-38.7-38.2c-11-11-6.9-15.2-4.2-17.9
		l10.8-10.8l2.2,2.2c-4.6,4.7-8.6,9.8-8.6,14.9c0,3.2,1.5,6.3,4.6,9.4c5.1,5.1,39.9,39.5,40.3,39.8l1.9,1.9l-1.5,1.5
		c-0.4,0.4-34.7,35.2-39.8,40.3c-8.9,8.9-3.2,16.8,4,24.3l-4.3,4.3L847.3,614c-2-2-3.1-3.1-3.1-5.5
		C844.2,605.9,845.5,601.9,851.6,595.1L851.6,595.1z M868.1,510.2l-1.9-1.9l-1.6-1.6c-1.6-1.6-2.2-2.3-2-3.5
		c0.3-1.7,2.3-4.6,5.9-8.5l3.4,3.4c1.5,1.9,2.3,3.2,2.8,4.3c0,0.4-0.3,1.1-1.1,2.2L868.1,510.2L868.1,510.2z M656.6,504.2
		c0.3-0.9,2.7-3.5,3.9-4.8l0.3-0.3l0.5-0.5l1.1-1.1l2.8-2.8c3.5,3.8,5.4,6.5,5.6,8.2c0.1,1.2-0.4,1.9-2,3.6l-1.3,1.3l-3.6,3.6
		l-6.9-6.9C656.8,504.5,656.6,504.4,656.6,504.2L656.6,504.2z M864.9,601.9c0.3-0.3,0.5-0.5,0.9-0.9c1.1-0.9,2.6-2.3,4-4l7,7.1
		c0.3,0.3,0.4,0.4,0.5,0.5c-0.4,1.1-2.7,3.5-3.9,4.6l-0.3,0.3l-4.4,4.4C861.4,605.9,862.8,604.4,864.9,601.9L864.9,601.9
		L864.9,601.9z M660.4,604l5.5-5.5l2.2,2.2l1.2,1.2c1.6,1.6,2.2,2.3,2,3.5c-0.3,1.7-2.3,4.6-5.9,8.5l-3.4-3.4
		c-3.8-3.8-3.1-4.4-1.9-6.1C660.1,604.3,660.3,604.1,660.4,604L660.4,604z M697.1,646.4l10.8-10.8c2-2,3.1-3.1,5.5-3.1
		c2.2,0,6.2,1.3,12.9,7.4l39.8,39.8l1.2,1.2l1.2-1.2l38.2-38.2c5-4.8,9.1-7.3,12.4-7.3c2.6,0,4,1.6,5.6,3.1l10.8,10.8l-2.4,2
		c-4.7-4.7-9.8-8.7-15.1-8.7c-3.2,0-6.3,1.5-9.4,4.6c-5.1,5.1-39.5,39.9-39.8,40.3l-1.9,1.9l-0.9-0.9c-0.4-0.4-35.2-34.7-40.3-39.8
		c-3.1-3.1-6.2-4.6-9.4-4.6c-4.8,0-9.4,3.2-14.8,8.1L697.1,646.4L697.1,646.4z M811.5,655.2l3.5-3.5c1.3-1.3,2-2,3.1-2
		c1.7,0,4.7,2,8.9,6.1l-3.5,3.5c-2.4,2.4-3.8,2.8-4.4,2.8c-0.7,0-1.2-0.4-2-1.2L811.5,655.2L811.5,655.2z M707.2,656.3
		c4.2-4,7.1-6.1,9-6.1c0.9,0,1.6,0.7,2.8,1.9l0,0l0,0l5.1,5.1l-7.1,7.1c-0.3,0.3-0.4,0.4-0.5,0.4c-1.1-0.4-3.5-2.7-4.6-3.9l-0.3-0.3
		l-0.8-0.8L710,659L707.2,656.3L707.2,656.3z"/>
</g>
<g>
	<path fill="#6B6B78" d="M767,451l-1.2,1.2l-39,39h-21.4h-1.7v1.7v21.4l-39,39l-1.2,1.2l1.2,1.2l39,39v21.4v1.7h1.7h21.4l39,39
		l1.2,1.2l1.2-1.2l39-39h21.4h1.7v-1.7v-21.4l39-39l1.2-1.2l-1.2-1.2l-39-39v-21.4v-1.7h-1.7h-21.4l-39-39L767,451L767,451z
		 M712.4,499.9h17.2h0.7l0.5-0.5l36.2-36.2l36.2,36.2l0.5,0.5h0.7h17.2v17.2v0.7l0.5,0.5l36.2,36.2l-36.2,36.2l-0.5,0.5v0.7v17.2
		h-17.2h-0.7l-0.5,0.5L767,645.8l-36.2-36.2l-0.5-0.5h-0.7h-17.2v-17.2v-0.7l-0.5-0.5l-36.2-36.2l36.2-36.2l0.5-0.5v-0.7V499.9
		L712.4,499.9z"/>
</g>
<path fill="#6B6B78" d="M793.9,568.4v27.2l-26.5,14.8l-26.6-14.8v-30.1l30.1-16.7c2-1.2,3.9-3.4,3.9-5.6l0.4-21h-12.8v16.9
	l-14.8,8.2l-6.9-3.4v-29.8l26.5-15.1l26.5,15.1v30.1L765,561c-11.6,6.6-19.2,11.6-19.2,27.6v5h13.3v-5c0-9,2.8-10.4,12.9-16.1
	l32-18.8c1.9-1.2,3.2-3.4,3.2-5.6v-37.5c0-2.4-1.1-4.6-3.1-5.6L771.2,486c-2-1.2-4.4-1.2-6.3,0l-33.5,18.8c-2,1.2-3.9,3.4-3.9,5.6
	v37.5c0,2.4,1.9,4.6,4,5.8l3,1.3l-2.8,1.2c-2,1.2-4.2,3.5-4.2,5.8v37.5c0,2.4,2.3,4.6,4.3,5.8l32.9,18.8c1.1,0.7,2.4,0.8,3.6,0.8
	s2.4-0.3,3.5-0.8l32.3-18.8c2-1.2,3.1-3.5,3.1-5.8v-31.1L793.9,568.4L793.9,568.4z"/>
</svg>
