<?xml version="1.0" encoding="utf-8"?>
<!-- Generator: Adobe Illustrator 16.0.0, SVG Export Plug-In . SVG Version: 6.00 Build 0)  -->
<!DOCTYPE svg PUBLIC "-//W3C//DTD SVG 1.1//EN" "http://www.w3.org/Graphics/SVG/1.1/DTD/svg11.dtd">
<svg version="1.1" id="Laag_1" opacity="0.3" xmlns="http://www.w3.org/2000/svg" xmlns:xlink="http://www.w3.org/1999/xlink"
	 x="0px" y="0px" width="13.156px" height="13.279px" viewBox="206.428 -0.156 13.156 13.279"
	 enable-background="new 206.428 -0.156 13.156 13.279" xml:space="preserve">
<path opacity="0.3" enable-background="new    " d="M213.01,9.221l-2.693-2.69l2.693-2.693l2.692,2.693L213.01,9.221z M210.688,6.53
	l2.322,2.321l2.32-2.321l-2.32-2.321L210.688,6.53z"/>
<path opacity="0.3" enable-background="new    " d="M213.01,10.381l-3.854-3.851l3.854-3.854l3.854,3.854L213.01,10.381z
	 M209.516,6.53l3.491,3.491l3.491-3.491l-3.488-3.52L209.516,6.53z"/>
<polygon opacity="0.3" enable-background="new    " points="206.422,3.849 206.422,3.476 210.012,-0.112 210.379,-0.112 "/>
<polygon opacity="0.3" enable-background="new    " points="219.58,3.9 215.662,-0.17 216.03,-0.17 219.58,3.496 "/>
<polygon opacity="0.3" enable-background="new    " points="216.005,13.127 215.637,13.127 219.58,9.184 219.58,9.555 "/>
<polygon opacity="0.3" enable-background="new    " points="209.963,13.116 206.445,9.527 206.445,9.158 210.328,13.116 "/>
<path opacity="0.3" enable-background="new    " d="M219.545,6.583c0,0-1.701,1.748-1.958,2.005
	c-0.36,0.365-0.204,0.678,0.257,1.145l-0.335,0.342l-0.594-0.6c-0.103-0.104-0.18-0.18-0.18-0.34c0-0.18,0.129-0.416,0.388-0.703
	l1.956-1.978l-1.905-1.901c-0.594-0.6-0.361-0.859-0.206-1.017l0.594-0.6l0.23,0.232c-0.463,0.468-0.618,0.782-0.256,1.146
	c0.256,0.259,1.983,1.979,1.983,1.979V5.928c0,0-0.85-0.833-1.391-1.379l0.336-0.338c0.129-0.13,0.18-0.233,0.154-0.365
	c0-0.129-0.104-0.285-0.257-0.442l-2.373-2.396l-0.077-0.078c-0.104-0.155-0.23-0.284-0.412-0.284c-0.103,0-0.179,0.051-0.256,0.129
	l-0.438,0.391c-0.545-0.551-1.318-1.306-1.318-1.306h-0.358c0,0,1.728,1.72,1.983,1.979c0.128,0.13,0.257,0.207,0.387,0.207
	c0.23,0,0.464-0.155,0.722-0.442l0.36,0.341l-0.593,0.6c-0.155,0.155-0.412,0.417-1.007-0.207l-1.956-1.984l-1.881,1.901
	c-0.255,0.259-0.517,0.417-0.696,0.391c-0.127,0-0.23-0.104-0.334-0.182l-0.597-0.602l0.23-0.233
	c0.256,0.259,0.464,0.391,0.619,0.442c0.051,0,0.077,0.026,0.103,0.026c0.179,0,0.31-0.104,0.412-0.207
	c0.256-0.259,1.958-2.005,1.958-2.005h-0.361c0,0-0.823,0.859-1.364,1.405l-0.335-0.339c-0.23-0.233-0.517-0.207-0.799,0.078
	l-2.369,2.4l-0.076,0.078c-0.129,0.129-0.282,0.284-0.282,0.468c0,0.104,0.051,0.182,0.128,0.259l0.387,0.417
	c-0.544,0.549-1.29,1.33-1.29,1.33v0.362c0,0,1.701-1.746,1.958-2.005c0.36-0.365,0.205-0.678-0.257-1.146l0.361-0.339l0.594,0.6
	c0.153,0.156,0.412,0.417-0.205,1.017l-1.96,1.979l1.881,1.899c0.594,0.602,0.361,0.86,0.205,1.018l-0.594,0.604l-0.23-0.207
	c0.464-0.468,0.594-0.782,0.23-1.146c-0.256-0.26-2.011-1.979-2.011-1.979v0.364c0,0,0.85,0.833,1.39,1.38l-0.31,0.338
	c-0.23,0.234-0.205,0.523,0.103,0.809l2.371,2.397l0.076,0.104c0.155,0.155,0.31,0.339,0.492,0.339l0,0
	c0.102,0,0.179-0.053,0.256-0.13l0.411-0.416c0.543,0.549,1.313,1.302,1.313,1.302h0.361c0,0-1.728-1.721-1.983-1.979
	c-0.36-0.365-0.67-0.208-1.134,0.232l-0.335-0.339l0.593-0.601c0.104-0.104,0.181-0.181,0.335-0.181c0.181,0,0.413,0.13,0.697,0.392
	l1.956,1.979l1.882-1.9c0.619-0.601,0.849-0.366,1.005-0.208l0.593,0.599l-0.256,0.209c-0.463-0.47-0.772-0.627-1.133-0.259
	c-0.256,0.259-1.958,2.005-1.958,2.005h0.36c0,0,0.825-0.859,1.365-1.406l0.335,0.339c0.102,0.104,0.229,0.157,0.335,0.157h0.025
	c0.128,0,0.281-0.106,0.438-0.26l2.372-2.397l0.076-0.078c0.154-0.156,0.31-0.313,0.31-0.496c0-0.104-0.051-0.182-0.127-0.259
	l-0.413-0.417c0.542-0.549,1.287-1.328,1.287-1.328L219.545,6.583z M218.411,3.872c0,0.025,0,0.078-0.076,0.181l-0.338,0.341
	c-0.103-0.104-0.179-0.182-0.23-0.233c-0.153-0.155-0.256-0.259,0.256-0.781l0.23,0.233C218.335,3.716,218.386,3.794,218.411,3.872z
	 M215.293,1.658c-0.052-0.052-0.153-0.155-0.311-0.313l0.413-0.417c0.051-0.025,0.076-0.025,0.076-0.025
	c0.077,0,0.205,0.129,0.31,0.233c0.025,0.026,0.051,0.052,0.076,0.078l0.206,0.208C215.551,1.919,215.448,1.813,215.293,1.658z
	 M210.191,1.187c0.256-0.259,0.36-0.155,0.438-0.078l0.336,0.338c-0.104,0.104-0.206,0.182-0.231,0.233
	c-0.153,0.156-0.257,0.259-0.772-0.258L210.191,1.187z M208.258,4.159c-0.052,0.052-0.154,0.155-0.311,0.313l-0.411-0.417
	c-0.025-0.052-0.025-0.078-0.025-0.078c0-0.078,0.127-0.207,0.229-0.313c0.025-0.026,0.052-0.052,0.078-0.077l0.203-0.208
	C208.515,3.897,208.411,4.002,208.258,4.159z M207.715,8.877l0.335-0.339c0.103,0.104,0.18,0.181,0.23,0.233
	c0.154,0.155,0.256,0.259-0.256,0.781l-0.229-0.233C207.536,9.058,207.638,8.98,207.715,8.877z M210.731,11.272
	c0.051,0.053,0.153,0.156,0.31,0.313l-0.412,0.416c-0.051,0.051-0.077,0.051-0.077,0.051c-0.077,0-0.204-0.128-0.31-0.231
	c-0.025-0.026-0.051-0.053-0.076-0.079l-0.205-0.205C210.473,11.013,210.601,11.116,210.731,11.272z M216.091,10.281
	c-0.282-0.285-0.67-0.495-1.364,0.209l-1.7,1.719l-1.778-1.798c-0.335-0.339-0.619-0.496-0.878-0.468
	c-0.229,0.026-0.387,0.182-0.49,0.259l-0.617,0.601l-0.618-0.626l0.593-0.601c0.281-0.284,0.491-0.679-0.205-1.379l-1.702-1.721
	l1.779-1.797c0.696-0.704,0.463-1.12,0.204-1.379l-0.593-0.6l0.619-0.625l0.593,0.6c0.103,0.103,0.257,0.259,0.491,0.259
	c0.257,0.025,0.568-0.129,0.878-0.469l1.701-1.72l1.778,1.798c0.334,0.338,0.618,0.468,0.85,0.468c0.229,0,0.386-0.13,0.542-0.259
	l0.594-0.6l0.618,0.625l-0.598,0.575c-0.281,0.285-0.49,0.678,0.204,1.378l1.702,1.721l-1.778,1.797
	c-0.696,0.704-0.464,1.12-0.205,1.379l0.593,0.601l-0.618,0.625L216.091,10.281z M215.86,11.742c-0.255,0.26-0.36,0.157-0.438,0.079
	l-0.335-0.34c0.103-0.104,0.179-0.181,0.23-0.231c0.153-0.156,0.256-0.26,0.772,0.259L215.86,11.742z M218.487,8.877
	c0.052,0.053,0.052,0.078,0.052,0.078c0,0.078-0.128,0.207-0.229,0.313l-0.282,0.285c-0.491-0.522-0.386-0.626-0.257-0.781
	c0.053-0.053,0.181-0.155,0.31-0.313L218.487,8.877z"/>
<path opacity="0.3" enable-background="new    " d="M206.424,5.393l0.396-0.343c0.101-0.095,0.141-0.169,0.121-0.267
	c0-0.095-0.355-0.45-0.501-0.566v0.313l0.161,0.127c0.058,0.065,0.082,0.104,0.093,0.142c0,0.014,0,0.042-0.044,0.1l-0.226,0.186
	V5.393z"/>
<path opacity="0.3" enable-background="new    " d="M219.542,5.086L219.333,4.9c-0.042-0.058-0.042-0.086-0.042-0.1
	c0.01-0.04,0.033-0.079,0.086-0.142l0.15-0.128V4.218c-0.137,0.116-0.467,0.471-0.467,0.566c-0.018,0.097,0.02,0.171,0.114,0.267
	l0.367,0.344V5.086z"/>
<path opacity="0.3" enable-background="new    " d="M206.424,7.977l0.231,0.186c0.045,0.059,0.045,0.086,0.045,0.1
	c-0.011,0.039-0.035,0.079-0.096,0.142l-0.165,0.128v0.313c0.15-0.116,0.515-0.472,0.515-0.566c0.021-0.098-0.021-0.172-0.125-0.267
	l-0.405-0.344V7.977z"/>
<path opacity="0.3" enable-background="new    " d="M219.525,7.67l-0.346,0.344c-0.089,0.096-0.124,0.17-0.106,0.268
	c0,0.094,0.311,0.449,0.438,0.566V8.533l-0.142-0.127c-0.05-0.065-0.071-0.105-0.081-0.143c0-0.014,0-0.041,0.039-0.1l0.197-0.186
	V7.67z"/>
<path opacity="0.3" enable-background="new    " d="M214.406,13.126l0.186-0.255c0.059-0.052,0.086-0.052,0.101-0.052
	c0.04,0.012,0.079,0.041,0.142,0.105l0.127,0.185h0.314c-0.116-0.168-0.472-0.57-0.566-0.57c-0.098-0.022-0.172,0.022-0.268,0.14
	l-0.344,0.447H214.406z"/>
<path opacity="0.3" enable-background="new    " d="M214.101-0.158l0.343,0.448c0.096,0.116,0.17,0.161,0.268,0.139
	c0.096,0,0.45-0.403,0.566-0.57h-0.313l-0.128,0.188c-0.064,0.065-0.104,0.093-0.141,0.104c-0.015,0-0.043,0-0.101-0.051
	l-0.186-0.255L214.101-0.158z"/>
<path opacity="0.3" enable-background="new    " d="M211.823,13.133l-0.347-0.452c-0.095-0.118-0.169-0.164-0.267-0.142
	c-0.095,0-0.45,0.406-0.566,0.577h0.313l0.128-0.188c0.065-0.065,0.104-0.094,0.142-0.106c0.014,0,0.041,0,0.1,0.053l0.186,0.258
	H211.823z"/>
<path opacity="0.3" enable-background="new    " d="M211.517-0.111l-0.186,0.236c-0.058,0.047-0.086,0.047-0.101,0.047
	c-0.039-0.011-0.078-0.037-0.141-0.097l-0.128-0.17h-0.313c0.116,0.154,0.471,0.526,0.566,0.526
	c0.098,0.021,0.172-0.021,0.268-0.128l0.343-0.414H211.517z"/>
<g opacity="0.3">
	<polygon points="206.44,2.811 206.44,2.456 208.992,-0.169 209.337,-0.169 	"/>
	<polygon points="219.572,2.796 216.601,-0.156 216.946,-0.156 219.572,2.45 	"/>
	<polygon points="208.984,13.141 206.436,10.591 206.436,10.221 209.328,13.141 	"/>
	<polygon points="217.059,13.099 216.719,13.099 219.538,10.195 219.538,10.546 	"/>
</g>
<g opacity="0.3">
	<polygon points="206.406,1.662 206.406,1.295 207.838,-0.167 208.197,-0.167 	"/>
	<polygon points="219.584,1.697 217.785,-0.177 218.138,-0.177 219.584,1.33 	"/>
	<polygon points="207.774,13.125 206.428,11.695 206.428,11.326 208.12,13.125 	"/>
	<polygon points="218.175,13.141 217.824,13.141 219.601,11.314 219.601,11.676 	"/>
</g>
<g opacity="0.3">
	<polygon points="206.436,0.545 206.436,0.057 206.618,-0.156 207.043,-0.156 	"/>
	<polygon points="219.58,0.55 218.936,-0.156 219.37,-0.156 219.58,0.075 	"/>
	<polygon points="206.525,13.141 206.422,13.024 206.422,12.513 206.985,13.141 	"/>
	<polygon points="219.464,13.109 219.013,13.109 219.58,12.496 219.58,12.983 	"/>
</g>
<path opacity="0.3" enable-background="new    " d="M213.01,11.486l-1.937-1.936h-1.084V8.467l-1.937-1.937l1.937-1.936V3.51h1.084
	l1.937-1.936l1.936,1.936h1.084v1.084l1.936,1.936l-1.936,1.937v1.084h-1.084L213.01,11.486z M210.244,9.293h0.932l1.834,1.834
	l1.834-1.834h0.93V8.364l1.834-1.834l-1.834-1.834V3.765h-0.93l-1.834-1.833l-1.834,1.833h-0.932v0.931L208.41,6.53l1.834,1.834
	V9.293L210.244,9.293z"/>
<path opacity="0.3" enable-background="new    " d="M213.571,6.834V7.42L213,7.737l-0.571-0.32V6.77l0.647-0.358
	c0.045-0.025,0.084-0.072,0.084-0.121l0.01-0.453h-0.274v0.364l-0.317,0.177l-0.146-0.072V5.664l0.57-0.325l0.571,0.325v0.648
	l-0.624,0.362c-0.248,0.142-0.414,0.248-0.414,0.591v0.107h0.286V7.266c0-0.192,0.061-0.223,0.278-0.348l0.689-0.404
	c0.042-0.025,0.07-0.072,0.07-0.121V5.585c0-0.051-0.023-0.098-0.068-0.121l-0.707-0.404c-0.045-0.025-0.096-0.025-0.137,0
	l-0.723,0.404c-0.044,0.025-0.084,0.072-0.084,0.121v0.808c0,0.051,0.042,0.098,0.086,0.123l0.063,0.03l-0.06,0.025
	c-0.044,0.026-0.091,0.075-0.091,0.125v0.809c0,0.051,0.049,0.1,0.093,0.125l0.71,0.404c0.023,0.014,0.054,0.018,0.08,0.018
	c0.025,0,0.053-0.007,0.074-0.018l0.693-0.404c0.045-0.025,0.067-0.074,0.067-0.125V6.836h-0.285V6.834z"/>
</svg>
